<svg width="99" height="101" viewBox="0 0 99 101" fill="none" xmlns="http://www.w3.org/2000/svg">
<path d="M4.28065 52.5311C2.32803 50.5785 2.32803 47.4127 4.28065 45.4601L42.4644 7.27631C44.417 5.32369 47.5829 5.32368 49.5355 7.27631L87.7192 45.4601C89.6719 47.4127 89.6719 50.5785 87.7192 52.5311L49.5355 90.7149C47.5829 92.6675 44.417 92.6675 42.4644 90.7149L4.28065 52.5311Z" fill="#F6F6FB"/>
<path d="M95.0273 75.6206V84.9956H47.3711V76.939L70.5156 51.6948C73.0547 48.8302 75.0566 46.3563 76.5215 44.2729C77.9863 42.1896 79.0117 40.3179 79.5977 38.6577C80.2161 36.965 80.5254 35.3211 80.5254 33.7261C80.5254 31.48 80.1022 29.5106 79.2559 27.8179C78.4421 26.0926 77.2376 24.7417 75.6426 23.7651C74.0475 22.756 72.1107 22.2515 69.832 22.2515C67.1953 22.2515 64.9818 22.8211 63.1914 23.9604C61.401 25.0998 60.0501 26.6785 59.1387 28.6968C58.2272 30.6825 57.7715 32.9611 57.7715 35.5327H46.0039C46.0039 31.3986 46.9479 27.6226 48.8359 24.2046C50.724 20.7541 53.4583 18.0197 57.0391 16.0015C60.6198 13.9507 64.9329 12.9253 69.9785 12.9253C74.7311 12.9253 78.7676 13.7228 82.0879 15.3179C85.4082 16.9129 87.931 19.1753 89.6562 22.105C91.4141 25.0347 92.293 28.5015 92.293 32.5054C92.293 34.7189 91.9349 36.9162 91.2188 39.0972C90.5026 41.2782 89.4772 43.4591 88.1426 45.6401C86.8405 47.7886 85.2943 49.9533 83.5039 52.1343C81.7135 54.2827 79.7441 56.4637 77.5957 58.6772L62.2148 75.6206H95.0273Z" fill="#A1A3C0"/>
</svg>
