<svg width="101" height="101" viewBox="0 0 101 101" fill="none" xmlns="http://www.w3.org/2000/svg">
<path d="M4.28065 52.5311C2.32803 50.5785 2.32803 47.4127 4.28065 45.4601L42.4644 7.27631C44.417 5.32368 47.5829 5.32368 49.5355 7.27631L87.7192 45.4601C89.6719 47.4127 89.6719 50.5785 87.7192 52.5311L49.5355 90.7149C47.5829 92.6675 44.417 92.6675 42.4644 90.7149L4.28065 52.5311Z" fill="#F6F6FB"/>
<path d="M63.1895 44.1265H70.2207C72.9551 44.1265 75.2174 43.6545 77.0078 42.7104C78.8307 41.7664 80.1816 40.4644 81.0605 38.8042C81.9395 37.144 82.3789 35.2397 82.3789 33.0913C82.3789 30.8452 81.972 28.9246 81.1582 27.3296C80.377 25.702 79.1725 24.4487 77.5449 23.5698C75.9499 22.6909 73.9154 22.2515 71.4414 22.2515C69.3581 22.2515 67.4701 22.6746 65.7773 23.521C64.1172 24.3348 62.7988 25.5067 61.8223 27.0366C60.8457 28.534 60.3574 30.3244 60.3574 32.4077H48.541C48.541 28.6317 49.5339 25.2788 51.5195 22.3491C53.5052 19.4194 56.207 17.1245 59.625 15.4644C63.0755 13.7716 66.9492 12.9253 71.2461 12.9253C75.8359 12.9253 79.8398 13.6903 83.2578 15.2202C86.7083 16.7176 89.3939 18.9637 91.3145 21.9585C93.235 24.9533 94.1953 28.6642 94.1953 33.0913C94.1953 35.1095 93.7233 37.1603 92.7793 39.2437C91.8353 41.327 90.4355 43.2313 88.5801 44.9565C86.7246 46.6493 84.4134 48.0327 81.6465 49.1069C78.8796 50.1486 75.6732 50.6694 72.0273 50.6694H63.1895V44.1265ZM63.1895 53.3062V46.8608H72.0273C76.194 46.8608 79.7422 47.3491 82.6719 48.3257C85.6341 49.3022 88.043 50.6532 89.8984 52.3784C91.7539 54.0711 93.1048 56.008 93.9512 58.189C94.8301 60.37 95.2695 62.6812 95.2695 65.1226C95.2695 68.4429 94.6673 71.4051 93.4629 74.0093C92.291 76.5809 90.6146 78.7619 88.4336 80.5522C86.2526 82.3426 83.6973 83.6935 80.7676 84.605C77.8704 85.5164 74.7129 85.9722 71.2949 85.9722C68.235 85.9722 65.3053 85.549 62.5059 84.7026C59.7064 83.8563 57.1999 82.603 54.9863 80.9429C52.7728 79.2502 51.015 77.1506 49.7129 74.644C48.4434 72.105 47.8086 69.1753 47.8086 65.855H59.5762C59.5762 67.9709 60.0645 69.8426 61.041 71.4702C62.0501 73.0653 63.4499 74.3185 65.2402 75.23C67.0632 76.1414 69.1465 76.5972 71.4902 76.5972C73.9642 76.5972 76.0964 76.1577 77.8867 75.2788C79.6771 74.3999 81.0443 73.0978 81.9883 71.3726C82.9648 69.6473 83.4531 67.564 83.4531 65.1226C83.4531 62.3556 82.916 60.1095 81.8418 58.3843C80.7676 56.659 79.2376 55.3895 77.252 54.5757C75.2663 53.7293 72.9225 53.3062 70.2207 53.3062H63.1895Z" fill="#A1A3C0"/>
</svg>
