<svg width="92" height="101" viewBox="0 0 92 101" fill="none" xmlns="http://www.w3.org/2000/svg">
<path d="M4.28065 52.5331C2.32803 50.5805 2.32803 47.4146 4.28065 45.462L42.4644 7.27826C44.417 5.32564 47.5829 5.32564 49.5355 7.27826L87.7192 45.462C89.6719 47.4146 89.6719 50.5805 87.7192 52.5331L49.5355 90.7169C47.5829 92.6695 44.417 92.6695 42.4644 90.7169L4.28065 52.5331Z" fill="#F6F6FB"/>
<path d="M52.7246 51.9409L43.3496 49.646L47.207 13.9038H85.5371V23.8647H56.9727L55.0195 41.2964C56.1263 40.6453 57.6562 40.0106 59.6094 39.3921C61.5625 38.741 63.7923 38.4155 66.2988 38.4155C69.6517 38.4155 72.6465 38.9689 75.2832 40.0757C77.9525 41.1499 80.2148 42.7287 82.0703 44.812C83.9258 46.8628 85.3418 49.3693 86.3184 52.3315C87.2949 55.2612 87.7832 58.5653 87.7832 62.2437C87.7832 65.5314 87.2949 68.6076 86.3184 71.4722C85.3743 74.3368 83.9421 76.8595 82.0215 79.0405C80.1009 81.2215 77.6758 82.9305 74.7461 84.1675C71.849 85.3719 68.4147 85.9741 64.4434 85.9741C61.4811 85.9741 58.6328 85.5509 55.8984 84.7046C53.1966 83.8257 50.7715 82.5399 48.623 80.8472C46.4746 79.1219 44.7493 77.006 43.4473 74.4995C42.1452 71.9604 41.3965 69.047 41.2012 65.7593H52.7246C53.0176 68.0705 53.6523 70.0399 54.6289 71.6675C55.638 73.2625 56.9727 74.4832 58.6328 75.3296C60.293 76.1759 62.2135 76.5991 64.3945 76.5991C66.3802 76.5991 68.0892 76.2573 69.5215 75.5737C70.9538 74.8576 72.1419 73.8485 73.0859 72.5464C74.0625 71.2118 74.7786 69.6493 75.2344 67.8589C75.7227 66.0685 75.9668 64.0828 75.9668 61.9019C75.9668 59.8185 75.6901 57.9142 75.1367 56.189C74.6159 54.4637 73.8184 52.9663 72.7441 51.6968C71.7025 50.4272 70.3841 49.4507 68.7891 48.7671C67.194 48.0509 65.3548 47.6929 63.2715 47.6929C60.472 47.6929 58.3236 48.0998 56.8262 48.9136C55.3613 49.7274 53.9941 50.7365 52.7246 51.9409Z" fill="#A1A3C0"/>
</svg>
