<svg width="92" height="101" viewBox="0 0 92 101" fill="none" xmlns="http://www.w3.org/2000/svg">
<path d="M4.28065 53.5331C2.32803 51.5805 2.32803 48.4146 4.28065 46.462L42.4644 8.27826C44.417 6.32564 47.5829 6.32564 49.5355 8.27826L87.7192 46.462C89.6719 48.4146 89.6719 51.5805 87.7192 53.5331L49.5355 91.7169C47.5829 93.6695 44.417 93.6695 42.4644 91.7169L4.28065 53.5331Z" fill="#F6F6FB"/>
<path d="M74.918 13.4644H76.3828V23.0835H75.5527C71.3535 23.0835 67.724 23.7345 64.6641 25.0366C61.6367 26.3387 59.1465 28.1291 57.1934 30.4077C55.2402 32.6864 53.7754 35.3556 52.7988 38.4155C51.8548 41.4429 51.3828 44.6655 51.3828 48.0835V59.2651C51.3828 62.0972 51.6921 64.6037 52.3105 66.7847C52.929 68.9331 53.7917 70.7397 54.8984 72.2046C56.0378 73.6369 57.3398 74.7274 58.8047 75.4761C60.2695 76.2248 61.8483 76.5991 63.541 76.5991C65.2988 76.5991 66.8939 76.241 68.3262 75.5249C69.7585 74.7762 70.9792 73.7508 71.9883 72.4487C72.9974 71.1466 73.7624 69.6004 74.2832 67.8101C74.804 66.0197 75.0645 64.0666 75.0645 61.9507C75.0645 59.9325 74.804 58.0444 74.2832 56.2866C73.7949 54.4963 73.0625 52.9338 72.0859 51.5991C71.1094 50.2319 69.8887 49.174 68.4238 48.4253C66.9915 47.644 65.3314 47.2534 63.4434 47.2534C61.0996 47.2534 58.9674 47.8068 57.0469 48.9136C55.1589 50.0203 53.6289 51.4689 52.457 53.2593C51.3177 55.0171 50.6992 56.8888 50.6016 58.8745L46.1094 57.4097C46.3698 54.3823 47.0371 51.6642 48.1113 49.2554C49.2181 46.8465 50.6667 44.7957 52.457 43.103C54.2474 41.4103 56.3145 40.1245 58.6582 39.2456C61.0345 38.3341 63.6387 37.8784 66.4707 37.8784C69.9212 37.8784 72.916 38.5295 75.4551 39.8315C77.9941 41.1336 80.0938 42.9077 81.7539 45.1538C83.4466 47.3674 84.6999 49.9064 85.5137 52.771C86.36 55.603 86.7832 58.5653 86.7832 61.6577C86.7832 65.0757 86.2624 68.2658 85.2207 71.228C84.179 74.1577 82.6491 76.7293 80.6309 78.9429C78.6452 81.1564 76.2201 82.8817 73.3555 84.1187C70.5234 85.3556 67.3008 85.9741 63.6875 85.9741C59.8789 85.9741 56.4772 85.2417 53.4824 83.7769C50.5202 82.312 47.9974 80.2938 45.9141 77.7222C43.8633 75.1506 42.3008 72.1883 41.2266 68.8354C40.1523 65.4826 39.6152 61.9344 39.6152 58.1909V53.3081C39.6152 47.9045 40.2988 42.8101 41.666 38.0249C43.0332 33.2072 45.1328 28.9591 47.9648 25.2808C50.8294 21.6024 54.4915 18.7215 58.9512 16.6382C63.4108 14.5223 68.7331 13.4644 74.918 13.4644Z" fill="#A1A3C0"/>
</svg>
