<svg width="20" height="20" viewBox="0 0 20 20" fill="none" xmlns="http://www.w3.org/2000/svg">
<path d="M20 10C20 15.5228 15.5228 20 10 20C4.47715 20 0 15.5228 0 10C0 4.47715 4.47715 0 10 0C15.5228 0 20 4.47715 20 10Z" fill="#2A2456"/>
<path d="M10.001 0.00200009C4.479 0.00200009 0.00200009 4.479 0.00200009 10.001C0.00200009 14.991 3.658 19.127 8.439 19.88V12.892H5.899V10.001H8.439V7.798C8.439 5.29 9.932 3.907 12.215 3.907C13.309 3.907 14.455 4.102 14.455 4.102V6.561H13.191C11.951 6.561 11.563 7.333 11.563 8.124V9.999H14.334L13.891 12.89H11.563V19.878C16.344 19.129 20 14.992 20 10.001C20 4.479 15.523 0.00200009 10.001 0.00200009Z" fill="white"/>
</svg>
