<svg width="20" height="20" viewBox="0 0 20 20" fill="none" xmlns="http://www.w3.org/2000/svg">
<path d="M20 10C20 15.5228 15.5228 20 10 20C4.47715 20 0 15.5228 0 10C0 4.47715 4.47715 0 10 0C15.5228 0 20 4.47715 20 10Z" fill="white"/>
<path d="M10 5C11.3585 5 11.528 5.005 12.061 5.03C12.5935 5.055 12.956 5.1385 13.275 5.2625C13.605 5.3895 13.883 5.5615 14.161 5.839C14.4152 6.08895 14.612 6.39129 14.7375 6.725C14.861 7.0435 14.945 7.4065 14.97 7.939C14.9935 8.472 15 8.6415 15 10C15 11.3585 14.995 11.528 14.97 12.061C14.945 12.5935 14.861 12.956 14.7375 13.275C14.6123 13.6089 14.4156 13.9113 14.161 14.161C13.911 14.4152 13.6087 14.6119 13.275 14.7375C12.9565 14.861 12.5935 14.945 12.061 14.97C11.528 14.9935 11.3585 15 10 15C8.6415 15 8.472 14.995 7.939 14.97C7.4065 14.945 7.044 14.861 6.725 14.7375C6.39116 14.6122 6.08876 14.4155 5.839 14.161C5.5847 13.9111 5.38797 13.6087 5.2625 13.275C5.1385 12.9565 5.055 12.5935 5.03 12.061C5.0065 11.528 5 11.3585 5 10C5 8.6415 5.005 8.472 5.03 7.939C5.055 7.406 5.1385 7.044 5.2625 6.725C5.38762 6.39109 5.5844 6.08866 5.839 5.839C6.08884 5.58462 6.39121 5.38786 6.725 5.2625C7.044 5.1385 7.406 5.055 7.939 5.03C8.472 5.0065 8.6415 5 10 5ZM10 7.5C9.33696 7.5 8.70107 7.76339 8.23223 8.23223C7.76339 8.70107 7.5 9.33696 7.5 10C7.5 10.663 7.76339 11.2989 8.23223 11.7678C8.70107 12.2366 9.33696 12.5 10 12.5C10.663 12.5 11.2989 12.2366 11.7678 11.7678C12.2366 11.2989 12.5 10.663 12.5 10C12.5 9.33696 12.2366 8.70107 11.7678 8.23223C11.2989 7.76339 10.663 7.5 10 7.5ZM13.25 7.375C13.25 7.20924 13.1842 7.05027 13.0669 6.93306C12.9497 6.81585 12.7908 6.75 12.625 6.75C12.4592 6.75 12.3003 6.81585 12.1831 6.93306C12.0658 7.05027 12 7.20924 12 7.375C12 7.54076 12.0658 7.69973 12.1831 7.81694C12.3003 7.93415 12.4592 8 12.625 8C12.7908 8 12.9497 7.93415 13.0669 7.81694C13.1842 7.69973 13.25 7.54076 13.25 7.375ZM10 8.5C10.3978 8.5 10.7794 8.65804 11.0607 8.93934C11.342 9.22064 11.5 9.60217 11.5 10C11.5 10.3978 11.342 10.7794 11.0607 11.0607C10.7794 11.342 10.3978 11.5 10 11.5C9.60217 11.5 9.22064 11.342 8.93934 11.0607C8.65804 10.7794 8.5 10.3978 8.5 10C8.5 9.60217 8.65804 9.22064 8.93934 8.93934C9.22064 8.65804 9.60217 8.5 10 8.5Z" fill="#1B1A34"/>
</svg>
