<svg width="20" height="20" viewBox="0 0 20 20" fill="none" xmlns="http://www.w3.org/2000/svg">
<path d="M20 10C20 15.5228 15.5228 20 10 20C4.47715 20 0 15.5228 0 10C0 4.47715 4.47715 0 10 0C15.5228 0 20 4.47715 20 10Z" fill="white"/>
<path d="M15 11.13V14.827H12.857V11.377C12.857 10.511 12.547 9.92 11.771 9.92C11.179 9.92 10.826 10.318 10.671 10.704C10.615 10.842 10.6 11.034 10.6 11.226V14.827H8.456C8.456 14.827 8.485 8.985 8.456 8.38H10.6V9.293L10.586 9.314H10.6V9.293C10.885 8.853 11.393 8.228 12.532 8.228C13.942 8.228 15 9.15 15 11.13ZM6.213 5.271C5.48 5.271 5 5.753 5 6.385C5 7.005 5.466 7.5 6.185 7.5H6.199C6.947 7.5 7.412 7.004 7.412 6.385C7.398 5.753 6.947 5.271 6.213 5.271ZM5.127 14.827H7.271V8.38H5.127V14.827Z" fill="#1B1A34"/>
</svg>
