<svg width="20" height="20" viewBox="0 0 20 20" fill="none" xmlns="http://www.w3.org/2000/svg">
<path d="M20 10C20 15.5228 15.5228 20 10 20C4.47715 20 0 15.5228 0 10C0 4.47715 4.47715 0 10 0C15.5228 0 20 4.47715 20 10Z" fill="#1B1A34"/>
<path d="M10 0C4.47715 0 0 4.47715 0 10C0 15.5228 4.47715 20 10 20C15.5228 20 20 15.5228 20 10C20 4.47715 15.5228 0 10 0ZM7.98229 11.5625L7.82292 11.8844C7.74896 12.0281 7.57708 12.0833 7.46146 12.0833H5.98854C5.72813 12.0833 5.73958 11.8844 5.80312 11.7542L7.07083 9.21875L6.41979 7.91667L6.32396 7.72396C6.26042 7.59375 6.24896 7.39583 6.50937 7.39583H7.98229C8.09792 7.39583 8.26979 7.45104 8.34375 7.59375L8.50313 7.91667L9.15417 9.21875L7.98229 11.5625ZM14.1979 5.64062L14.1021 5.83333L11.4979 11.0417L13.1562 14.3583C13.2208 14.4885 13.2313 14.6875 12.9708 14.6875H11.4979C11.3812 14.6875 11.2115 14.6323 11.1385 14.4885L10.9771 14.1667L9.41458 11.0417L12.1802 5.51042C12.2521 5.36667 12.4219 5.3125 12.5396 5.3125H14.0125C14.2729 5.3125 14.2615 5.51042 14.1979 5.64062Z" fill="white"/>
</svg>
