<svg width="1920" height="435" viewBox="0 0 1920 435" fill="none" xmlns="http://www.w3.org/2000/svg">
<path d="M0 0H1920V435H0V0Z" fill="url(#paint0_linear_802_3724)"/>
<path opacity="0.5" d="M960.071 324.942C956.166 321.037 956.166 314.705 960.071 310.8L1013.81 257.06C1017.72 253.155 1024.05 253.155 1027.95 257.06L1081.69 310.8C1085.6 314.705 1085.6 321.037 1081.69 324.942L1027.95 378.682C1024.05 382.588 1017.72 382.588 1013.81 378.682L960.071 324.942Z" fill="url(#paint1_linear_802_3724)"/>
<rect opacity="0.5" x="1033.71" y="116.628" width="31" height="31" rx="4.5" transform="rotate(-45 1033.71 116.628)" stroke="#A1A3C0"/>
<rect opacity="0.2" x="1532.71" y="82.7388" width="95" height="95" rx="9.5" transform="rotate(-45 1532.71 82.7388)" stroke="#CFD0DF"/>
<defs>
<linearGradient id="paint0_linear_802_3724" x1="-31.3333" y1="-6.27687e-05" x2="1685.42" y2="565.099" gradientUnits="userSpaceOnUse">
<stop stop-color="#3A2469"/>
<stop offset="1" stop-color="#215173"/>
</linearGradient>
<linearGradient id="paint1_linear_802_3724" x1="1020.51" y1="318.239" x2="1053.26" y2="360.159" gradientUnits="userSpaceOnUse">
<stop stop-color="#40417D"/>
<stop offset="1" stop-color="#314E7C"/>
</linearGradient>
</defs>
</svg>
