<svg width="103" height="102" viewBox="0 0 103 102" fill="none" xmlns="http://www.w3.org/2000/svg">
<rect x="0.0883789" y="50.9117" width="72" height="72" rx="5" transform="rotate(-45 0.0883789 50.9117)" fill="#F6F6FB"/>
<path d="M49 24H79C81.7614 24 84 26.2386 84 29V78H49C46.2386 78 44 75.7614 44 73V29C44 26.2386 46.2386 24 49 24Z" fill="white"/>
<path fill-rule="evenodd" clip-rule="evenodd" d="M43 29C43 25.6863 45.6863 23 49 23H79C82.3137 23 85 25.6863 85 29V48C85 48.5523 84.5523 49 84 49C83.4477 49 83 48.5523 83 48V29C83 26.7909 81.2091 25 79 25H49C46.7909 25 45 26.7909 45 29V73C45 75.2091 46.7909 77 49 77H74C74.5523 77 75 77.4477 75 78C75 78.5523 74.5523 79 74 79H49C45.6863 79 43 76.3137 43 73V29Z" fill="#A1A3C0"/>
<path d="M49 24H79C81.7614 24 84 26.2386 84 29V78H49C46.2386 78 44 75.7614 44 73V29C44 26.2386 46.2386 24 49 24Z" fill="white"/>
<path fill-rule="evenodd" clip-rule="evenodd" d="M43 29C43 25.6863 45.6863 23 49 23H79C82.3137 23 85 25.6863 85 29V48C85 48.5523 84.5523 49 84 49C83.4477 49 83 48.5523 83 48V29C83 26.7909 81.2091 25 79 25H49C46.7909 25 45 26.7909 45 29V73C45 75.2091 46.7909 77 49 77H74C74.5523 77 75 77.4477 75 78C75 78.5523 74.5523 79 74 79H49C45.6863 79 43 76.3137 43 73V29Z" fill="#A1A3C0"/>
<path fill-rule="evenodd" clip-rule="evenodd" d="M62 68C62 67.4477 62.4477 67 63 67H68C68.5523 67 69 67.4477 69 68C69 68.5523 68.5523 69 68 69H63C62.4477 69 62 68.5523 62 68Z" fill="#A1A3C0"/>
<path d="M49 69V63C49 62.4477 49.4477 62 50 62H56C56.5523 62 57 62.4477 57 63V69C57 69.5523 56.5523 70 56 70H50C49.4477 70 49 69.5523 49 69Z" fill="#A1A3C0"/>
<path fill-rule="evenodd" clip-rule="evenodd" d="M48 63C48 61.8954 48.8954 61 50 61H56C57.1046 61 58 61.8954 58 63V69C58 70.1046 57.1046 71 56 71H50C48.8954 71 48 70.1046 48 69V63ZM56 63H50V69H56V63Z" fill="#A1A3C0"/>
<path fill-rule="evenodd" clip-rule="evenodd" d="M62 53C62 52.4477 62.4477 52 63 52H73C73.5523 52 74 52.4477 74 53C74 53.5523 73.5523 54 73 54H63C62.4477 54 62 53.5523 62 53Z" fill="#A1A3C0"/>
<path d="M49 54V48C49 47.4477 49.4477 47 50 47H56C56.5523 47 57 47.4477 57 48V54C57 54.5523 56.5523 55 56 55H50C49.4477 55 49 54.5523 49 54Z" fill="#A1A3C0"/>
<path fill-rule="evenodd" clip-rule="evenodd" d="M48 48C48 46.8954 48.8954 46 50 46H56C57.1046 46 58 46.8954 58 48V54C58 55.1046 57.1046 56 56 56H50C48.8954 56 48 55.1046 48 54V48ZM56 48H50V54H56V48Z" fill="#A1A3C0"/>
<path fill-rule="evenodd" clip-rule="evenodd" d="M62 38C62 37.4477 62.4477 37 63 37H78C78.5523 37 79 37.4477 79 38C79 38.5523 78.5523 39 78 39H63C62.4477 39 62 38.5523 62 38Z" fill="#A1A3C0"/>
<path d="M49 39V33C49 32.4477 49.4477 32 50 32H56C56.5523 32 57 32.4477 57 33V39C57 39.5523 56.5523 40 56 40H50C49.4477 40 49 39.5523 49 39Z" fill="#A1A3C0"/>
<path fill-rule="evenodd" clip-rule="evenodd" d="M48 33C48 31.8954 48.8954 31 50 31H56C57.1046 31 58 31.8954 58 33V39C58 40.1046 57.1046 41 56 41H50C48.8954 41 48 40.1046 48 39V33ZM56 33H50V39H56V33Z" fill="#A1A3C0"/>
<path fill-rule="evenodd" clip-rule="evenodd" d="M55.4632 33.2876C55.9527 33.5435 56.1421 34.1476 55.8862 34.6371L53.8862 38.4633C53.7226 38.7763 53.4059 38.9798 53.0531 38.9986C52.7004 39.0174 52.3639 38.8486 52.1679 38.5547L50.168 35.5547C49.8616 35.0952 49.9858 34.4743 50.4453 34.168C50.9048 33.8616 51.5257 33.9858 51.8321 34.4453L52.8957 36.0408L54.1138 33.7106C54.3696 33.2211 54.9738 33.0318 55.4632 33.2876Z" fill="white"/>
<path fill-rule="evenodd" clip-rule="evenodd" d="M55.4632 48.1138C55.9527 48.3696 56.1421 48.9738 55.8862 49.4632L53.8862 53.2894C53.7226 53.6025 53.4059 53.806 53.0531 53.8248C52.7004 53.8435 52.3639 53.6748 52.1679 53.3809L50.168 50.3809C49.8616 49.9213 49.9858 49.3005 50.4453 48.9941C50.9048 48.6878 51.5257 48.8119 51.8321 49.2715L52.8957 50.867L54.1138 48.5368C54.3696 48.0473 54.9738 47.8579 55.4632 48.1138Z" fill="white"/>
<path fill-rule="evenodd" clip-rule="evenodd" d="M55.4632 63.1138C55.9527 63.3696 56.1421 63.9738 55.8862 64.4632L53.8862 68.2894C53.7226 68.6025 53.4059 68.806 53.0531 68.8247C52.7004 68.8435 52.3639 68.6748 52.1679 68.3809L50.168 65.3809C49.8616 64.9213 49.9858 64.3005 50.4453 63.9941C50.9048 63.6878 51.5257 63.8119 51.8321 64.2715L52.8957 65.867L54.1138 63.5368C54.3696 63.0473 54.9738 62.8579 55.4632 63.1138Z" fill="white"/>
<path d="M98 66C98 72.6274 92.6274 78 86 78C79.3726 78 74 72.6274 74 66C74 59.3726 79.3726 54 86 54C92.6274 54 98 59.3726 98 66Z" fill="#A1A3C0"/>
<path fill-rule="evenodd" clip-rule="evenodd" d="M86 55C79.9249 55 75 59.9249 75 66C75 72.0751 79.9249 77 86 77C92.0751 77 97 72.0751 97 66C97 59.9249 92.0751 55 86 55ZM73 66C73 58.8203 78.8203 53 86 53C93.1797 53 99 58.8203 99 66C99 73.1797 93.1797 79 86 79C78.8203 79 73 73.1797 73 66Z" fill="#A1A3C0"/>
<path d="M84 62C84 63.1046 83.1046 64 82 64C80.8954 64 80 63.1046 80 62C80 60.8954 80.8954 60 82 60C83.1046 60 84 60.8954 84 62Z" fill="white"/>
<path d="M92 70C92 71.1046 91.1046 72 90 72C88.8954 72 88 71.1046 88 70C88 68.8954 88.8954 68 90 68C91.1046 68 92 68.8954 92 70Z" fill="white"/>
<path fill-rule="evenodd" clip-rule="evenodd" d="M91.7071 60.2929C92.0976 60.6834 92.0976 61.3166 91.7071 61.7071L81.7071 71.7071C81.3166 72.0976 80.6834 72.0976 80.2929 71.7071C79.9024 71.3166 79.9024 70.6834 80.2929 70.2929L90.2929 60.2929C90.6834 59.9024 91.3166 59.9024 91.7071 60.2929Z" fill="white"/>
</svg>
