<svg width="102" height="102" viewBox="0 0 102 102" fill="none" xmlns="http://www.w3.org/2000/svg">
<rect y="50.9117" width="72" height="72" rx="5" transform="rotate(-45 0 50.9117)" fill="#F6F6FB"/>
<path d="M50.9116 45.1887L50.9873 27.7892C50.9988 25.1409 53.2287 23 55.9755 23H86.9234C89.6783 23 91.9116 25.1532 91.9116 27.8093V42.2373C91.9116 44.8934 89.6783 47.0466 86.9234 47.0466H58.9894L50.9116 56L50.9115 49C50.9118 48 50.9064 46.3843 50.9116 45.1887Z" fill="white"/>
<path d="M77.9116 52.5C77.9116 57.9769 77.0972 61 70.9116 61C64.726 61 63.9116 57.9769 63.9116 52.5C63.9116 47.0231 64.726 44 70.9116 44C77.0972 44 77.9116 47.0231 77.9116 52.5Z" fill="#A1A3C0"/>
<path d="M86.9116 79H54.9116V72.4279C54.9116 70.1696 56.1528 68.1232 58.0789 67.2061L65.8774 63.4925C66.5592 63.1678 67.2972 63 68.0434 63H73.7799C74.526 63 75.264 63.1678 75.9459 63.4925L83.7444 67.2061C85.6704 68.1232 86.9116 70.1696 86.9116 72.4279V79Z" fill="#A1A3C0"/>
<path fill-rule="evenodd" clip-rule="evenodd" d="M55.9807 24.0556C53.7835 24.0556 51.9997 25.8857 51.9904 28.1494L51.9067 48.7222V55.0718L58.2192 47.0473C58.5661 46.6063 59.1944 46.5386 59.6223 46.8959C60.0504 47.2534 60.1161 47.9006 59.7693 48.3415L51.6842 58.6193C51.4181 58.9575 50.9742 59.0863 50.576 58.941C50.1778 58.7955 49.9116 58.4074 49.9116 57.9722V48.7179L49.9953 28.1408C50.0092 24.7452 52.6848 22 55.9807 22H86.9262C90.2319 22 92.9116 24.7609 92.9116 28.1667V42.5555C92.9116 45.9613 90.2319 48.7222 86.9262 48.7222H82.936C82.385 48.7222 81.9384 48.2621 81.9384 47.6944C81.9384 47.1268 82.385 46.6666 82.936 46.6666H86.9262C89.13 46.6666 90.9165 44.826 90.9165 42.5555V28.1667C90.9165 25.8962 89.13 24.0556 86.9262 24.0556H55.9807Z" fill="#A1A3C0"/>
<path d="M64.9116 35C64.9116 36.1046 64.0162 37 62.9116 37C61.807 37 60.9116 36.1046 60.9116 35C60.9116 33.8954 61.807 33 62.9116 33C64.0162 33 64.9116 33.8954 64.9116 35Z" fill="#A1A3C0"/>
<path d="M72.9116 35C72.9116 36.1046 72.0162 37 70.9116 37C69.807 37 68.9116 36.1046 68.9116 35C68.9116 33.8954 69.807 33 70.9116 33C72.0162 33 72.9116 33.8954 72.9116 35Z" fill="#A1A3C0"/>
<path d="M80.9116 35C80.9116 36.1046 80.0162 37 78.9116 37C77.807 37 76.9116 36.1046 76.9116 35C76.9116 33.8954 77.807 33 78.9116 33C80.0162 33 80.9116 33.8954 80.9116 35Z" fill="#A1A3C0"/>
</svg>
