<svg width="103" height="102" viewBox="0 0 103 102" fill="none" xmlns="http://www.w3.org/2000/svg">
<rect x="0.0883789" y="50.9117" width="72" height="72" rx="5" transform="rotate(-45 0.0883789 50.9117)" fill="#F6F6FB"/>
<path d="M84 29V73C84 75.7614 81.7614 78 79 78H49C46.2386 78 44 75.7614 44 73V36L56 24H79C81.7614 24 84 26.2386 84 29Z" fill="white"/>
<path fill-rule="evenodd" clip-rule="evenodd" d="M55.2929 23.2929C55.4804 23.1054 55.7348 23 56 23H79C82.3137 23 85 25.6863 85 29V50C85 50.5523 84.5523 51 84 51C83.4477 51 83 50.5523 83 50V29C83 26.7909 81.2091 25 79 25H57V31C57 34.3137 54.3137 37 51 37H45V73C45 75.2091 46.7909 77 49 77H77C77.5523 77 78 77.4477 78 78C78 78.5523 77.5523 79 77 79H49C45.6863 79 43 76.3137 43 73V36.8284C43 36.0328 43.3161 35.2697 43.8787 34.7071L55.2929 23.2929ZM46.4142 35H51C53.2091 35 55 33.2091 55 31V26.4142L46.4142 35Z" fill="#A1A3C0"/>
<path fill-rule="evenodd" clip-rule="evenodd" d="M87.6771 53.264C87.2944 52.9121 86.7057 52.912 86.3231 53.2639L86.3192 53.2674L86.3033 53.2819C86.2887 53.2951 86.2662 53.3154 86.2364 53.3421C86.1767 53.3953 86.0877 53.4739 85.9736 53.5722C85.7452 53.769 85.4177 54.0436 85.0245 54.3517C84.2301 54.9743 83.2011 55.7075 82.1971 56.2206C81.2264 56.7167 79.6672 57.1668 78.2779 57.4997C77.5978 57.6626 76.9832 57.7918 76.5386 57.8803C76.3165 57.9244 76.1375 57.9583 76.0148 57.981C75.9534 57.9924 75.9061 58.0009 75.8746 58.0066L75.8393 58.0129L75.8291 58.0147C75.35 58.0979 75 58.5137 75 58.9999C75 62.6661 75.9792 66.9724 77.8601 70.6742C79.7354 74.3651 82.5811 77.5922 86.3992 78.8589C86.7889 78.9882 87.2111 78.9882 87.6008 78.8589C91.4189 77.5922 94.2646 74.3651 96.1399 70.6742C98.0208 66.9724 99 62.6661 99 58.9999C99 58.5137 98.6503 58.098 98.1712 58.0147L87.6771 53.264ZM98.1712 58.0147L98.1607 58.0129L98.1254 58.0066C98.0939 58.0009 98.0466 57.9924 97.9852 57.981C97.8625 57.9583 97.6835 57.9244 97.4614 57.8803C97.0168 57.7918 96.4022 57.6626 95.7221 57.4997C94.3328 57.1668 92.7736 56.7167 91.8029 56.2206C90.7989 55.7075 89.7699 54.9743 88.9755 54.3517C88.5823 54.0436 88.2548 53.769 88.0264 53.5722C87.9123 53.4739 87.8233 53.3953 87.7636 53.3421C87.7338 53.3154 87.7113 53.2951 87.6967 53.2819L87.6808 53.2674L87.6771 53.264" fill="#A1A3C0"/>
<path fill-rule="evenodd" clip-rule="evenodd" d="M93.6823 61.7689C94.0861 62.1457 94.1079 62.7785 93.7311 63.1823L86.7311 70.6823C86.546 70.8805 86.2884 70.9951 86.0172 70.9998C85.7461 71.0045 85.4847 70.8988 85.2929 70.707L81.2929 66.707C80.9024 66.3165 80.9024 65.6834 81.2929 65.2928C81.6834 64.9023 82.3166 64.9023 82.7071 65.2928L85.9752 68.5609L92.2689 61.8176C92.6458 61.4139 93.2786 61.392 93.6823 61.7689Z" fill="white"/>
</svg>
