<svg width="350" height="147" viewBox="0 0 350 147" fill="none" xmlns="http://www.w3.org/2000/svg">
<path d="M105.059 89.4336V114.824H2.71484L0.761719 94.707L57.8906 2.8125H83.8672L55.6445 49.0039L32.207 89.4336H105.059ZM90.7031 2.8125V145H57.793V2.8125H90.7031ZM224.535 60.918V86.8945C224.535 97.1159 223.331 106.003 220.922 113.555C218.578 121.107 215.193 127.357 210.766 132.305C206.404 137.253 201.195 140.931 195.141 143.34C189.086 145.749 182.413 146.953 175.121 146.953C169.262 146.953 163.793 146.204 158.715 144.707C153.637 143.145 149.047 140.801 144.945 137.676C140.909 134.486 137.426 130.514 134.496 125.762C131.566 121.009 129.32 115.41 127.758 108.965C126.195 102.454 125.414 95.0977 125.414 86.8945V60.918C125.414 50.6315 126.586 41.7448 128.93 34.2578C131.339 26.7057 134.757 20.4557 139.184 15.5078C143.611 10.5599 148.852 6.88151 154.906 4.47266C160.961 2.0638 167.634 0.859375 174.926 0.859375C180.785 0.859375 186.221 1.64062 191.234 3.20312C196.312 4.70052 200.902 7.04427 205.004 10.2344C209.105 13.3594 212.589 17.2982 215.453 22.0508C218.383 26.8034 220.629 32.4349 222.191 38.9453C223.754 45.3906 224.535 52.7148 224.535 60.918ZM191.625 90.8984V56.7188C191.625 52.1615 191.365 48.1901 190.844 44.8047C190.388 41.4193 189.672 38.5547 188.695 36.2109C187.784 33.8672 186.645 31.9792 185.277 30.5469C183.91 29.0495 182.348 27.9753 180.59 27.3242C178.897 26.6081 177.009 26.25 174.926 26.25C172.322 26.25 169.978 26.8034 167.895 27.9102C165.876 28.9518 164.151 30.6445 162.719 32.9883C161.286 35.332 160.18 38.457 159.398 42.3633C158.682 46.2695 158.324 51.0547 158.324 56.7188V90.8984C158.324 95.5208 158.552 99.5573 159.008 103.008C159.529 106.393 160.245 109.29 161.156 111.699C162.133 114.043 163.305 115.964 164.672 117.461C166.039 118.893 167.602 119.935 169.359 120.586C171.117 121.237 173.038 121.562 175.121 121.562C177.66 121.562 179.939 121.042 181.957 120C183.975 118.958 185.701 117.266 187.133 114.922C188.63 112.513 189.737 109.355 190.453 105.449C191.234 101.478 191.625 96.6276 191.625 90.8984ZM349.09 89.4336V114.824H246.746L244.793 94.707L301.922 2.8125H327.898L299.676 49.0039L276.238 89.4336H349.09ZM334.734 2.8125V145H301.824V2.8125H334.734Z" fill="white"/>
<path d="M105.059 89.4336H107.059V87.4336H105.059V89.4336ZM105.059 114.824V116.824H107.059V114.824H105.059ZM2.71484 114.824L0.724204 115.017L0.899615 116.824H2.71484V114.824ZM0.761719 94.707L-0.936808 93.6511L-1.29436 94.2262L-1.22892 94.9003L0.761719 94.707ZM57.8906 2.8125V0.8125H56.779L56.1921 1.75656L57.8906 2.8125ZM83.8672 2.8125L85.5738 3.85526L87.4329 0.8125H83.8672V2.8125ZM55.6445 49.0039L53.9379 47.9612L53.9258 47.9809L53.9142 48.0008L55.6445 49.0039ZM32.207 89.4336L30.4767 88.4305L28.7358 91.4336H32.207V89.4336ZM90.7031 2.8125H92.7031V0.8125H90.7031V2.8125ZM90.7031 145V147H92.7031V145H90.7031ZM57.793 145H55.793V147H57.793V145ZM57.793 2.8125V0.8125H55.793V2.8125H57.793ZM103.059 89.4336V114.824H107.059V89.4336H103.059ZM105.059 112.824H2.71484V116.824H105.059V112.824ZM4.70548 114.631L2.75236 94.5138L-1.22892 94.9003L0.724204 115.017L4.70548 114.631ZM2.46025 95.763L59.5891 3.86844L56.1921 1.75656L-0.936808 93.6511L2.46025 95.763ZM57.8906 4.8125H83.8672V0.8125H57.8906V4.8125ZM82.1605 1.76974L53.9379 47.9612L57.3512 50.0467L85.5738 3.85526L82.1605 1.76974ZM53.9142 48.0008L30.4767 88.4305L33.9373 90.4367L57.3748 50.007L53.9142 48.0008ZM32.207 91.4336H105.059V87.4336H32.207V91.4336ZM88.7031 2.8125V145H92.7031V2.8125H88.7031ZM90.7031 143H57.793V147H90.7031V143ZM59.793 145V2.8125H55.793V145H59.793ZM57.793 4.8125H90.7031V0.8125H57.793V4.8125ZM220.922 113.555L219.016 112.947L219.014 112.954L219.012 112.962L220.922 113.555ZM210.766 132.305L209.275 130.971L209.27 130.977L209.265 130.982L210.766 132.305ZM158.715 144.707L158.127 146.619L158.138 146.622L158.149 146.625L158.715 144.707ZM144.945 137.676L143.705 139.245L143.719 139.256L143.733 139.267L144.945 137.676ZM134.496 125.762L136.199 124.712L134.496 125.762ZM127.758 108.965L125.813 109.432L125.814 109.436L127.758 108.965ZM128.93 34.2578L127.024 33.65L127.021 33.6603L128.93 34.2578ZM139.184 15.5078L140.674 16.8414L139.184 15.5078ZM191.234 3.20312L190.639 5.11253L190.654 5.11711L190.669 5.12146L191.234 3.20312ZM205.004 10.2344L203.776 11.8131L203.784 11.8192L203.792 11.8252L205.004 10.2344ZM215.453 22.0508L213.74 23.0832L213.745 23.0918L213.751 23.1003L215.453 22.0508ZM222.191 38.9453L220.247 39.4121L220.248 39.4165L222.191 38.9453ZM190.844 44.8047L188.862 45.0715L188.864 45.0902L188.867 45.1088L190.844 44.8047ZM188.695 36.2109L186.831 36.9358L186.84 36.9581L186.849 36.9802L188.695 36.2109ZM185.277 30.5469L183.8 31.8954L183.815 31.9118L183.831 31.9278L185.277 30.5469ZM180.59 27.3242L179.811 29.1662L179.853 29.1839L179.895 29.1997L180.59 27.3242ZM167.895 27.9102L168.812 29.6874L168.822 29.682L168.833 29.6764L167.895 27.9102ZM159.398 42.3633L157.437 41.971L157.434 41.9868L157.431 42.0026L159.398 42.3633ZM159.008 103.008L157.025 103.27L157.028 103.291L157.031 103.312L159.008 103.008ZM161.156 111.699L159.286 112.407L159.297 112.438L159.31 112.468L161.156 111.699ZM164.672 117.461L163.195 118.809L163.21 118.826L163.225 118.842L164.672 117.461ZM169.359 120.586L168.665 122.461L169.359 120.586ZM181.957 120L182.874 121.777L181.957 120ZM187.133 114.922L185.434 113.866L185.43 113.872L185.426 113.879L187.133 114.922ZM190.453 105.449L188.491 105.063L188.488 105.076L188.486 105.089L190.453 105.449ZM222.535 60.918V86.8945H226.535V60.918H222.535ZM222.535 86.8945C222.535 96.9661 221.348 105.639 219.016 112.947L222.827 114.162C225.314 106.366 226.535 97.2657 226.535 86.8945H222.535ZM219.012 112.962C216.737 120.291 213.478 126.274 209.275 130.971L212.256 133.638C216.908 128.439 220.419 121.922 222.832 114.147L219.012 112.962ZM209.265 130.982C205.109 135.697 200.16 139.19 194.401 141.482L195.88 145.198C202.231 142.672 207.699 138.808 212.266 133.627L209.265 130.982ZM194.401 141.482C188.608 143.786 182.19 144.953 175.121 144.953V148.953C182.636 148.953 189.564 147.711 195.88 145.198L194.401 141.482ZM175.121 144.953C169.433 144.953 164.157 144.227 159.281 142.789L158.149 146.625C163.429 148.182 169.09 148.953 175.121 148.953V144.953ZM159.303 142.795C154.443 141.3 150.066 139.063 146.157 136.085L143.733 139.267C148.028 142.539 152.83 144.989 158.127 146.619L159.303 142.795ZM146.185 136.107C142.347 133.073 139.016 129.283 136.199 124.712L132.794 126.811C135.835 131.746 139.47 135.898 143.705 139.245L146.185 136.107ZM136.199 124.712C133.398 120.168 131.224 114.772 129.702 108.494L125.814 109.436C127.417 116.048 129.735 121.85 132.794 126.811L136.199 124.712ZM129.703 108.498C128.184 102.17 127.414 94.9742 127.414 86.8945H123.414C123.414 95.2211 124.207 102.739 125.813 109.432L129.703 108.498ZM127.414 86.8945V60.918H123.414V86.8945H127.414ZM127.414 60.918C127.414 50.7749 128.571 42.0995 130.838 34.8553L127.021 33.6603C124.601 41.3901 123.414 50.4881 123.414 60.918H127.414ZM130.835 34.8656C133.175 27.5307 136.468 21.5426 140.674 16.8414L137.693 14.1742C133.045 19.3688 129.502 25.8807 127.024 33.65L130.835 34.8656ZM140.674 16.8414C144.899 12.1197 149.884 8.62319 155.646 6.33099L154.167 2.61433C147.819 5.13983 142.323 9.00014 137.693 14.1742L140.674 16.8414ZM155.646 6.33099C161.439 4.02622 167.857 2.85938 174.926 2.85938V-1.14062C167.411 -1.14062 160.483 0.101379 154.167 2.61433L155.646 6.33099ZM174.926 2.85938C180.606 2.85938 185.84 3.61659 190.639 5.11253L191.83 1.29372C186.603 -0.335339 180.964 -1.14062 174.926 -1.14062V2.85938ZM190.669 5.12146C195.511 6.54945 199.876 8.77956 203.776 11.8131L206.232 8.65567C201.929 5.30898 197.114 2.8516 191.8 1.28479L190.669 5.12146ZM203.792 11.8252C207.678 14.786 210.996 18.5301 213.74 23.0832L217.166 21.0183C214.181 16.0663 210.533 11.9327 206.216 8.64351L203.792 11.8252ZM213.751 23.1003C216.55 27.6409 218.724 33.0678 220.247 39.4121L224.136 38.4786C222.534 31.802 220.216 25.9659 217.156 21.0013L213.751 23.1003ZM220.248 39.4165C221.765 45.6763 222.535 52.8378 222.535 60.918H226.535C226.535 52.5919 225.743 45.105 224.135 38.4741L220.248 39.4165ZM193.625 90.8984V56.7188H189.625V90.8984H193.625ZM193.625 56.7188C193.625 52.0907 193.361 48.0133 192.82 44.5006L188.867 45.1088C189.368 48.367 189.625 52.2322 189.625 56.7188H193.625ZM192.826 44.5379C192.354 41.0351 191.604 37.9907 190.541 35.4417L186.849 36.9802C187.74 39.1187 188.422 41.8035 188.862 45.0715L192.826 44.5379ZM190.559 35.486C189.578 32.9617 188.314 30.8311 186.724 29.1659L183.831 31.9278C184.976 33.1273 185.99 34.7727 186.831 36.9358L190.559 35.486ZM186.754 29.1983C185.19 27.4851 183.365 26.2194 181.284 25.4487L179.895 29.1997C181.33 29.7311 182.63 30.6139 183.8 31.8954L186.754 29.1983ZM181.369 25.4823C179.399 24.6488 177.241 24.25 174.926 24.25V28.25C176.777 28.25 178.395 28.5674 179.811 29.1662L181.369 25.4823ZM174.926 24.25C172.029 24.25 169.358 24.8682 166.956 26.1439L168.833 29.6764C170.598 28.7386 172.614 28.25 174.926 28.25V24.25ZM166.977 26.1329C164.572 27.3746 162.595 29.3548 161.012 31.9454L164.425 34.0312C165.707 31.9342 167.181 30.5291 168.812 29.6874L166.977 26.1329ZM161.012 31.9454C159.416 34.5578 158.246 37.9291 157.437 41.971L161.36 42.7555C162.114 38.9849 163.157 36.1063 164.425 34.0312L161.012 31.9454ZM157.431 42.0026C156.686 46.0662 156.324 50.9802 156.324 56.7188H160.324C160.324 51.1291 160.678 46.4728 161.366 42.7239L157.431 42.0026ZM156.324 56.7188V90.8984H160.324V56.7188H156.324ZM156.324 90.8984C156.324 95.5819 156.555 99.7095 157.025 103.27L160.991 102.746C160.549 99.4051 160.324 95.4598 160.324 90.8984H156.324ZM157.031 103.312C157.567 106.793 158.312 109.833 159.286 112.407L163.027 110.991C162.178 108.748 161.491 105.993 160.985 102.704L157.031 103.312ZM159.31 112.468C160.354 114.974 161.639 117.105 163.195 118.809L166.149 116.112C164.971 114.822 163.912 113.112 163.002 110.93L159.31 112.468ZM163.225 118.842C164.79 120.481 166.606 121.699 168.665 122.461L170.054 118.71C168.597 118.171 167.288 117.305 166.119 116.08L163.225 118.842ZM168.665 122.461C170.668 123.203 172.827 123.562 175.121 123.562V119.562C173.249 119.562 171.566 119.27 170.054 118.71L168.665 122.461ZM175.121 123.562C177.941 123.562 180.54 122.982 182.874 121.777L181.04 118.223C179.337 119.102 177.379 119.562 175.121 119.562V123.562ZM182.874 121.777C185.28 120.536 187.256 118.555 188.839 115.965L185.426 113.879C184.145 115.976 182.67 117.381 181.04 118.223L182.874 121.777ZM188.831 115.978C190.503 113.289 191.676 109.871 192.42 105.81L188.486 105.089C187.798 108.84 186.758 111.737 185.434 113.866L188.831 115.978ZM192.416 105.835C193.23 101.696 193.625 96.7085 193.625 90.8984H189.625C189.625 96.5468 189.239 101.259 188.491 105.063L192.416 105.835ZM349.09 89.4336H351.09V87.4336H349.09V89.4336ZM349.09 114.824V116.824H351.09V114.824H349.09ZM246.746 114.824L244.755 115.017L244.931 116.824H246.746V114.824ZM244.793 94.707L243.094 93.6511L242.737 94.2262L242.802 94.9003L244.793 94.707ZM301.922 2.8125V0.8125H300.81L300.223 1.75656L301.922 2.8125ZM327.898 2.8125L329.605 3.85526L331.464 0.8125H327.898V2.8125ZM299.676 49.0039L297.969 47.9612L297.957 47.9809L297.945 48.0008L299.676 49.0039ZM276.238 89.4336L274.508 88.4305L272.767 91.4336H276.238V89.4336ZM334.734 2.8125H336.734V0.8125H334.734V2.8125ZM334.734 145V147H336.734V145H334.734ZM301.824 145H299.824V147H301.824V145ZM301.824 2.8125V0.8125H299.824V2.8125H301.824ZM347.09 89.4336V114.824H351.09V89.4336H347.09ZM349.09 112.824H246.746V116.824H349.09V112.824ZM248.737 114.631L246.784 94.5138L242.802 94.9003L244.755 115.017L248.737 114.631ZM246.492 95.763L303.62 3.86844L300.223 1.75656L243.094 93.6511L246.492 95.763ZM301.922 4.8125H327.898V0.8125H301.922V4.8125ZM326.192 1.76974L297.969 47.9612L301.382 50.0467L329.605 3.85526L326.192 1.76974ZM297.945 48.0008L274.508 88.4305L277.969 90.4367L301.406 50.007L297.945 48.0008ZM276.238 91.4336H349.09V87.4336H276.238V91.4336ZM332.734 2.8125V145H336.734V2.8125H332.734ZM334.734 143H301.824V147H334.734V143ZM303.824 145V2.8125H299.824V145H303.824ZM301.824 4.8125H334.734V0.8125H301.824V4.8125Z" fill="#A1A3C0"/>
</svg>
