<svg width="24" height="24" viewBox="0 0 24 24" fill="none" xmlns="http://www.w3.org/2000/svg">
<path d="M11.003 11.9916C11.003 12.5439 11.4507 12.9916 12.003 12.9916C12.5553 12.9916 13.003 12.5439 13.003 11.9916H11.003ZM13.003 6.99999C13.003 6.44771 12.5553 5.99999 12.003 5.99999C11.4507 5.99999 11.003 6.44771 11.003 6.99999H13.003ZM12.3109 11.0528C11.7867 10.8786 11.2207 11.1624 11.0466 11.6865C10.8724 12.2106 11.1561 12.7766 11.6803 12.9508L12.3109 11.0528ZM14.6847 13.949C15.2088 14.1231 15.7749 13.8394 15.949 13.3153C16.1231 12.7912 15.8394 12.2251 15.3153 12.051L14.6847 13.949ZM20 12C20 16.4183 16.4183 20 12 20V22C17.5228 22 22 17.5228 22 12H20ZM12 20C7.58172 20 4 16.4183 4 12H2C2 17.5228 6.47715 22 12 22V20ZM4 12C4 7.58172 7.58172 4 12 4V2C6.47715 2 2 6.47715 2 12H4ZM12 4C16.4183 4 20 7.58172 20 12H22C22 6.47715 17.5228 2 12 2V4ZM13.003 11.9916V6.99999H11.003V11.9916H13.003ZM11.6803 12.9508L14.6847 13.949L15.3153 12.051L12.3109 11.0528L11.6803 12.9508Z" fill="#A1A3C0"/>
</svg>
