<svg width="52" height="52" viewBox="0 0 52 52" fill="none" xmlns="http://www.w3.org/2000/svg">
<path d="M16.5858 32.5858C15.8047 33.3668 15.8047 34.6332 16.5858 35.4142C17.3668 36.1953 18.6332 36.1953 19.4142 35.4142L16.5858 32.5858ZM35.4142 19.4142C36.1953 18.6332 36.1953 17.3668 35.4142 16.5858C34.6332 15.8047 33.3668 15.8047 32.5858 16.5858L35.4142 19.4142ZM32.5858 35.4142C33.3668 36.1953 34.6332 36.1953 35.4142 35.4142C36.1953 34.6332 36.1953 33.3668 35.4142 32.5858L32.5858 35.4142ZM19.4142 16.5858C18.6332 15.8047 17.3668 15.8047 16.5858 16.5858C15.8047 17.3668 15.8047 18.6332 16.5858 19.4142L19.4142 16.5858ZM48 26C48 38.1503 38.1503 48 26 48V52C40.3594 52 52 40.3594 52 26H48ZM26 48C13.8497 48 4 38.1503 4 26H0C0 40.3594 11.6406 52 26 52V48ZM4 26C4 13.8497 13.8497 4 26 4V0C11.6406 0 0 11.6406 0 26H4ZM26 4C38.1503 4 48 13.8497 48 26H52C52 11.6406 40.3594 0 26 0V4ZM19.4142 35.4142L35.4142 19.4142L32.5858 16.5858L16.5858 32.5858L19.4142 35.4142ZM35.4142 32.5858L19.4142 16.5858L16.5858 19.4142L32.5858 35.4142L35.4142 32.5858Z" fill="#50C0CE"/>
</svg>
