<svg width="24" height="25" viewBox="0 0 24 25" fill="none" xmlns="http://www.w3.org/2000/svg">
<path d="M13 4.7666C13 4.21432 12.5523 3.7666 12 3.7666C11.4477 3.7666 11 4.21432 11 4.7666H13ZM12 14.7659L11.2929 15.473C11.6834 15.8635 12.3166 15.8635 12.7071 15.473L12 14.7659ZM16.7071 11.473C17.0976 11.0825 17.0976 10.4493 16.7071 10.0588C16.3166 9.66826 15.6834 9.66826 15.2929 10.0588L16.7071 11.473ZM8.70711 10.0588C8.31658 9.66826 7.68342 9.66826 7.29289 10.0588C6.90237 10.4493 6.90237 11.0825 7.29289 11.473L8.70711 10.0588ZM11 4.7666V14.7659H13V4.7666H11ZM12.7071 15.473L16.7071 11.473L15.2929 10.0588L11.2929 14.0588L12.7071 15.473ZM12.7071 14.0588L8.70711 10.0588L7.29289 11.473L11.2929 15.473L12.7071 14.0588Z" fill="#2EA0AE"/>
<path d="M5 18.7666C4.44772 18.7666 4 19.2143 4 19.7666C4 20.3189 4.44772 20.7666 5 20.7666V18.7666ZM19 20.7666C19.5523 20.7666 20 20.3189 20 19.7666C20 19.2143 19.5523 18.7666 19 18.7666V20.7666ZM5 20.7666H19V18.7666H5V20.7666Z" fill="#2EA0AE"/>
</svg>
