<svg width="20" height="21" viewBox="0 0 20 21" fill="none" xmlns="http://www.w3.org/2000/svg">
<path d="M19 19.0051V20.0051C19.5523 20.0051 20 19.5574 20 19.0051H19ZM8 6.00513H9V5.00513H8V6.00513ZM1 19.0051H0C0 19.5574 0.447715 20.0051 1 20.0051L1 19.0051ZM12 4.00513C11.4477 4.00513 11 4.45284 11 5.00513C11 5.55741 11.4477 6.00513 12 6.00513V4.00513ZM19 6.00513C19.5523 6.00513 20 5.55741 20 5.00513C20 4.45284 19.5523 4.00513 19 4.00513V6.00513ZM12 9.00513C11.4477 9.00513 11 9.45284 11 10.0051C11 10.5574 11.4477 11.0051 12 11.0051V9.00513ZM19 11.0051C19.5523 11.0051 20 10.5574 20 10.0051C20 9.45284 19.5523 9.00513 19 9.00513V11.0051ZM5 9.00513C4.44772 9.00513 4 9.45284 4 10.0051C4 10.5574 4.44772 11.0051 5 11.0051V9.00513ZM8 11.0051C8.55228 11.0051 9 10.5574 9 10.0051C9 9.45284 8.55228 9.00513 8 9.00513V11.0051ZM12 14.0051C11.4477 14.0051 11 14.4528 11 15.0051C11 15.5574 11.4477 16.0051 12 16.0051V14.0051ZM19 16.0051C19.5523 16.0051 20 15.5574 20 15.0051C20 14.4528 19.5523 14.0051 19 14.0051V16.0051ZM5 14.0051C4.44772 14.0051 4 14.4528 4 15.0051C4 15.5574 4.44772 16.0051 5 16.0051V14.0051ZM8 16.0051C8.55228 16.0051 9 15.5574 9 15.0051C9 14.4528 8.55228 14.0051 8 14.0051V16.0051ZM10 2.00513H17V0.00512695H10V2.00513ZM18 3.00513V19.0051H20V3.00513H18ZM19 18.0051H8V20.0051H19V18.0051ZM9 19.0051V3.00513H7V19.0051H9ZM17 2.00513C17.5523 2.00513 18 2.45284 18 3.00513H20C20 1.34827 18.6569 0.00512695 17 0.00512695V2.00513ZM10 0.00512695C8.34315 0.00512695 7 1.34827 7 3.00513H9C9 2.45284 9.44771 2.00513 10 2.00513V0.00512695ZM3 7.00513H8V5.00513H3V7.00513ZM7 6.00513V19.0051H9V6.00513H7ZM8 18.0051H1V20.0051H8V18.0051ZM2 19.0051V8.00513H0V19.0051H2ZM3 5.00513C1.34315 5.00513 0 6.34827 0 8.00513H2C2 7.45284 2.44772 7.00513 3 7.00513V5.00513ZM12 6.00513H19V4.00513H12V6.00513ZM12 11.0051H19V9.00513H12V11.0051ZM5 11.0051H8V9.00513H5V11.0051ZM12 16.0051H19V14.0051H12V16.0051ZM5 16.0051H8V14.0051H5V16.0051Z" fill="#A1A3C0"/>
</svg>
