<svg width="20" height="20" viewBox="0 0 20 20" fill="none" xmlns="http://www.w3.org/2000/svg">
<path d="M1 10C1 11 1.00004 11 1.00013 11C1.00021 11 1.00034 11 1.00051 11C1.00068 11 1.00089 11 1.00114 11C1.0014 11 1.00169 11 1.00203 11C1.00237 11 1.00275 11 1.00317 11C1.00359 11 1.00405 11 1.00456 11C1.00506 11 1.00561 11 1.0062 11C1.00679 11 1.00742 11 1.00809 11C1.00876 11 1.00947 11 1.01023 11C1.01098 11 1.01178 11 1.01262 11C1.01345 11 1.01433 11 1.01525 11C1.01617 11 1.01713 11 1.01814 11C1.01914 11 1.02018 11 1.02126 11C1.02235 11 1.02347 11 1.02464 11C1.02581 11 1.02701 11 1.02826 11C1.02951 11 1.03079 11 1.03212 11C1.03345 11 1.03482 11 1.03623 11C1.03764 11 1.03909 11 1.04058 11C1.04207 11 1.0436 11 1.04518 11C1.04675 11 1.04836 11 1.05001 11C1.05166 11 1.05335 11 1.05509 11C1.05682 11 1.05859 11 1.0604 11C1.06221 11 1.06406 11 1.06596 11C1.06785 11 1.06978 11 1.07175 11C1.07372 11 1.07573 11 1.07778 11C1.07983 11 1.08192 11 1.08405 11C1.08618 11 1.08835 11 1.09056 11C1.09277 11 1.09501 11 1.0973 11C1.09959 11 1.10191 11 1.10428 11C1.10664 11 1.10905 11 1.11149 11C1.11393 11 1.11642 11 1.11894 11C1.12146 11 1.12402 11 1.12662 11C1.12922 11 1.13185 11 1.13453 11C1.13721 11 1.13992 11 1.14267 11C1.14543 11 1.14822 11 1.15105 11C1.15388 11 1.15675 11 1.15966 11C1.16256 11 1.16551 11 1.16849 11C1.17148 11 1.1745 11 1.17756 11C1.18062 11 1.18372 11 1.18685 11C1.18999 11 1.19316 11 1.19637 11C1.19959 11 1.20283 11 1.20612 11C1.20941 11 1.21273 11 1.2161 11C1.21946 11 1.22286 11 1.2263 11C1.22974 11 1.23321 11 1.23672 11C1.24024 11 1.24379 11 1.24738 11C1.25096 11 1.25459 11 1.25825 11C1.26191 11 1.26561 11 1.26935 11C1.27308 11 1.27686 11 1.28067 11C1.28448 11 1.28832 11 1.29221 11C1.29609 11 1.30001 11 1.30397 11C1.30793 11 1.31192 11 1.31595 11C1.31998 11 1.32405 11 1.32815 11C1.33226 11 1.3364 11 1.34058 11C1.34475 11 1.34896 11 1.35321 11C1.35746 11 1.36175 11 1.36607 11C1.37039 11 1.37475 11 1.37914 11C1.38354 11 1.38797 11 1.39243 11C1.3969 11 1.4014 11 1.40594 11C1.41048 11 1.41505 11 1.41966 11C1.42427 11 1.42891 11 1.43359 11C1.43827 11 1.44299 11 1.44774 11C1.45249 11 1.45728 11 1.4621 11C1.46692 11 1.47178 11 1.47667 11C1.48156 11 1.48649 11 1.49146 11C1.49642 11 1.50142 11 1.50645 11C1.51148 11 1.51655 11 1.52165 11C1.52676 11 1.53189 11 1.53707 11C1.54224 11 1.54745 11 1.55269 11C1.55793 11 1.56321 11 1.56852 11C1.57383 11 1.57917 11 1.58455 11C1.58993 11 1.59535 11 1.6008 11C1.60625 11 1.61173 11 1.61725 11C1.62276 11 1.62832 11 1.6339 11C1.63949 11 1.64511 11 1.65076 11C1.65641 11 1.6621 11 1.66782 11C1.67354 11 1.6793 11 1.68509 11C1.69088 11 1.6967 11 1.70256 11C1.70841 11 1.7143 11 1.72023 11C1.72615 11 1.73211 11 1.7381 11C1.74409 11 1.75011 11 1.75617 11C1.76223 11 1.76832 11 1.77444 11C1.78056 11 1.78672 11 1.79291 11C1.7991 11 1.80532 11 1.81158 11C1.81783 11 1.82412 11 1.83044 11C1.83676 11 1.84312 11 1.8495 11C1.85589 11 1.86231 11 1.86876 11C1.87522 11 1.8817 11 1.88822 11C1.89474 11 1.90128 11 1.90787 11C1.91445 11 1.92106 11 1.92771 11C1.93436 11 1.94104 11 1.94775 11C1.95446 11 1.9612 11 1.96798 11C1.97475 11 1.98156 11 1.9884 11C1.99524 11 2.00211 11 2.00901 11C2.01591 11 2.02285 11 2.02981 11C2.03678 11 2.04378 11 2.05081 11C2.05784 11 2.0649 11 2.07199 11C2.07908 11 2.08621 11 2.09336 11C2.10052 11 2.1077 11 2.11492 11C2.12214 11 2.12939 11 2.13667 11C2.14395 11 2.15126 11 2.1586 11C2.16594 11 2.17332 11 2.18072 11C2.18813 11 2.19556 11 2.20303 11C2.21049 11 2.21799 11 2.22552 11C2.23304 11 2.2406 11 2.24819 11C2.25578 11 2.2634 11 2.27104 11C2.27869 11 2.28637 11 2.29408 11C2.30179 11 2.30953 11 2.3173 11C2.32507 11 2.33287 11 2.3407 11C2.34854 11 2.3564 11 2.36429 11C2.37218 11 2.3801 11 2.38805 11C2.396 11 2.40398 11 2.41199 11C2.42 11 2.42804 11 2.43611 11C2.44418 11 2.45228 11 2.4604 11C2.46853 11 2.47669 11 2.48488 11C2.49306 11 2.50128 11 2.50953 11C2.51777 11 2.52605 11 2.53435 11C2.54266 11 2.55099 11 2.55935 11C2.56772 11 2.57611 11 2.58453 11C2.59295 11 2.6014 11 2.60988 11C2.61835 11 2.62686 11 2.6354 11C2.64393 11 2.6525 11 2.66109 11C2.66968 11 2.6783 11 2.68695 11C2.6956 11 2.70428 11 2.71299 11C2.7217 11 2.73043 11 2.73919 11C2.74796 11 2.75675 11 2.76557 11C2.77439 11 2.78324 11 2.79211 11C2.80099 11 2.80989 11 2.81882 11C2.82776 11 2.83672 11 2.8457 11C2.85469 11 2.86371 11 2.87275 11C2.88179 11 2.89086 11 2.89996 11C2.90906 11 2.91818 11 2.92734 11C2.93649 11 2.94567 11 2.95488 11C2.96409 11 2.97332 11 2.98258 11C2.99185 11 3.00114 11 3.01045 11C3.01977 11 3.02911 11 3.03848 11C3.04785 11 3.05725 11 3.06668 11C3.0761 11 3.08555 11 3.09503 11C3.10451 11 3.11401 11 3.12354 11C3.13308 11 3.14263 11 3.15222 11C3.1618 11 3.17141 11 3.18105 11C3.19069 11 3.20035 11 3.21004 11C3.21973 11 3.22945 11 3.23919 11C3.24894 11 3.2587 11 3.2685 11C3.27829 11 3.28812 11 3.29796 11C3.30781 11 3.31768 11 3.32758 11C3.33748 11 3.3474 11 3.35735 11C3.3673 11 3.37728 11 3.38728 11C3.39728 11 3.40731 11 3.41736 11C3.42742 11 3.43749 11 3.4476 11C3.4577 11 3.46783 11 3.47798 11C3.48814 11 3.49832 11 3.50852 11C3.51873 11 3.52896 11 3.53921 11C3.54947 11 3.55975 11 3.57005 11C3.58035 11 3.59068 11 3.60104 11C3.61139 11 3.62177 11 3.63218 11C3.64258 11 3.65301 11 3.66346 11C3.67391 11 3.68439 11 3.69489 11C3.7054 11 3.71592 11 3.72647 11C3.73702 11 3.7476 11 3.7582 11C3.7688 11 3.77942 11 3.79007 11C3.80072 11 3.81139 11 3.82208 11C3.83278 11 3.8435 11 3.85424 11C3.86499 11 3.87576 11 3.88655 11C3.89734 11 3.90815 11 3.91899 11C3.92983 11 3.94069 11 3.95158 11C3.96247 11 3.97338 11 3.98431 11C3.99524 11 4.0062 11 4.01718 11C4.02816 11 4.03916 11 4.05019 11C4.06121 11 4.07226 11 4.08333 11C4.09441 11 4.1055 11 4.11662 11C4.12774 11 4.13888 11 4.15005 11C4.16121 11 4.1724 11 4.18361 11C4.19482 11 4.20605 11 4.2173 11C4.22856 11 4.23984 11 4.25114 11C4.26244 11 4.27376 11 4.28511 11C4.29645 11 4.30782 11 4.31921 11C4.3306 11 4.34201 11 4.35345 11C4.36488 11 4.37634 11 4.38782 11C4.39929 11 4.4108 11 4.42232 11C4.43384 11 4.44539 11 4.45695 11C4.46852 11 4.48011 11 4.49172 11C4.50333 11 4.51496 11 4.52661 11C4.53826 11 4.54994 11 4.56163 11C4.57333 11 4.58505 11 4.59679 11C4.60853 11 4.62029 11 4.63207 11C4.64385 11 4.65565 11 4.66748 11C4.6793 11 4.69115 11 4.70301 11C4.71488 11 4.72677 11 4.73867 11C4.75058 11 4.76251 11 4.77446 11C4.78641 11 4.79838 11 4.81037 11C4.82236 11 4.83438 11 4.84641 11C4.85844 11 4.87049 11 4.88257 11C4.89464 11 4.90674 11 4.91885 11C4.93096 11 4.9431 11 4.95525 11C4.96741 11 4.97958 11 4.99178 11C5.00397 11 5.01619 11 5.02842 11C5.04066 11 5.05292 11 5.06519 11C5.07747 11 5.08976 11 5.10207 11C5.11439 11 5.12672 11 5.13908 11C5.15143 11 5.16381 11 5.1762 11C5.18859 11 5.20101 11 5.21344 11C5.22587 11 5.23832 11 5.25079 11C5.26326 11 5.27575 11 5.28826 11C5.30077 11 5.3133 11 5.32585 11C5.3384 11 5.35096 11 5.36355 11C5.37613 11 5.38874 11 5.40136 11C5.41399 11 5.42663 11 5.43929 11C5.45195 11 5.46463 11 5.47733 11C5.49003 11 5.50274 11 5.51548 11C5.52822 11 5.54097 11 5.55374 11C5.56651 11 5.57931 11 5.59211 11C5.60492 11 5.61775 11 5.6306 11C5.64344 11 5.65631 11 5.66919 11C5.68207 11 5.69497 11 5.70789 11C5.7208 11 5.73374 11 5.74669 11C5.75965 11 5.77262 11 5.78561 11C5.79859 11 5.8116 11 5.82463 11C5.83765 11 5.85069 11 5.86375 11C5.87681 11 5.88989 11 5.90298 11C5.91607 11 5.92919 11 5.94231 11C5.95544 11 5.96859 11 5.98175 11C5.99491 11 6.00809 11 6.02129 11C6.03449 11 6.0477 11 6.06093 11C6.07416 11 6.08741 11 6.10068 11C6.11394 11 6.12722 11 6.14052 11C6.15382 11 6.16713 11 6.18047 11C6.1938 11 6.20714 11 6.22051 11C6.23387 11 6.24725 11 6.26065 11C6.27405 11 6.28746 11 6.30089 11C6.31432 11 6.32777 11 6.34123 11C6.35469 11 6.36817 11 6.38166 11C6.39516 11 6.40867 11 6.42219 11C6.43572 11 6.44926 11 6.46282 11C6.47637 11 6.48995 11 6.50354 11C6.51712 11 6.53073 11 6.54435 11C6.55797 11 6.5716 11 6.58526 11C6.59891 11 6.61257 11 6.62625 11C6.63994 11 6.65363 11 6.66734 11C6.68106 11 6.69478 11 6.70853 11C6.72227 11 6.73603 11 6.7498 11C6.76357 11 6.77736 11 6.79116 11C6.80496 11 6.81878 11 6.83261 11C6.84644 11 6.86029 11 6.87415 11C6.88801 11 6.90188 11 6.91577 11C6.92966 11 6.94357 11 6.95749 11C6.97141 11 6.98534 11 6.99929 11C7.01324 11 7.0272 11 7.04117 11C7.05515 11 7.06914 11 7.08314 11C7.09715 11 7.11116 11 7.1252 11C7.13923 11 7.15327 11 7.16733 11C7.18139 11 7.19547 11 7.20955 11C7.22364 11 7.23774 11 7.25186 11C7.26597 11 7.2801 11 7.29424 11C7.30838 11 7.32254 11 7.33671 11C7.35087 11 7.36506 11 7.37925 11C7.39345 11 7.40765 11 7.42188 11C7.4361 11 7.45033 11 7.46458 11C7.47883 11 7.49309 11 7.50736 11C7.52163 11 7.53592 11 7.55022 11C7.56452 11 7.57883 11 7.59315 11C7.60748 11 7.62181 11 7.63616 11C7.65051 11 7.66487 11 7.67925 11C7.69362 11 7.70801 11 7.72241 11C7.73681 11 7.75122 11 7.76564 11C7.78007 11 7.7945 11 7.80895 11C7.8234 11 7.83786 11 7.85233 11C7.8668 11 7.88129 11 7.89578 11C7.91028 11 7.92479 11 7.9393 11C7.95382 11 7.96836 11 7.9829 11C7.99744 11 8.01199 11 8.02656 11C8.04113 11 8.0557 11 8.07029 11C8.08488 11 8.09948 11 8.11409 11C8.12871 11 8.14333 11 8.15796 11C8.1726 11 8.18724 11 8.2019 11C8.21655 11 8.23122 11 8.2459 11C8.26058 11 8.27527 11 8.28997 11C8.30467 11 8.31938 11 8.3341 11C8.34882 11 8.36355 11 8.37829 11C8.39304 11 8.40779 11 8.42255 11C8.43732 11 8.45209 11 8.46688 11C8.48166 11 8.49646 11 8.51126 11C8.52607 11 8.54088 11 8.55571 11C8.57053 11 8.58537 11 8.60021 11C8.61506 11 8.62992 11 8.64478 11C8.65965 11 8.67452 11 8.68941 11C8.70429 11 8.71919 11 8.73409 11C8.749 11 8.76391 11 8.77884 11C8.79376 11 8.8087 11 8.82364 11C8.83858 11 8.85353 11 8.8685 11C8.88346 11 8.89843 11 8.91341 11C8.92839 11 8.94338 11 8.95838 11C8.97338 11 8.98839 11 9.0034 11C9.01842 11 9.03345 11 9.04848 11C9.06351 11 9.07856 11 9.09361 11C9.10866 11 9.12372 11 9.13879 11C9.15386 11 9.16894 11 9.18403 11C9.19912 11 9.21421 11 9.22931 11C9.24442 11 9.25953 11 9.27465 11C9.28977 11 9.3049 11 9.32004 11C9.33518 11 9.35032 11 9.36547 11C9.38063 11 9.39579 11 9.41096 11C9.42613 11 9.44131 11 9.45649 11C9.47168 11 9.48687 11 9.50207 11C9.51727 11 9.53248 11 9.5477 11C9.56291 11 9.57813 11 9.59337 11C9.6086 11 9.62384 11 9.63908 11C9.65433 11 9.66958 11 9.68484 11C9.7001 11 9.71537 11 9.73065 11C9.74592 11 9.7612 11 9.77649 11C9.79178 11 9.80708 11 9.82238 11C9.83769 11 9.853 11 9.86831 11C9.88363 11 9.89895 11 9.91428 11C9.92962 11 9.94495 11 9.9603 11C9.97564 11 9.99099 11 10.0063 11C10.0217 11 10.0371 11 10.0524 11C10.0678 11 10.0832 11 10.0986 11C10.1139 11 10.1293 11 10.1447 11C10.1601 11 10.1755 11 10.1909 11C10.2063 11 10.2218 11 10.2372 11C10.2526 11 10.268 11 10.2834 11C10.2989 11 10.3143 11 10.3298 11C10.3452 11 10.3606 11 10.3761 11C10.3916 11 10.407 11 10.4225 11C10.4379 11 10.4534 11 10.4689 11C10.4844 11 10.4998 11 10.5153 11C10.5308 11 10.5463 11 10.5618 11C10.5773 11 10.5928 11 10.6083 11C10.6238 11 10.6393 11 10.6548 11C10.6703 11 10.6859 11 10.7014 11C10.7169 11 10.7324 11 10.748 11C10.7635 11 10.7791 11 10.7946 11C10.8101 11 10.8257 11 10.8412 11C10.8568 11 10.8724 11 10.8879 11C10.9035 11 10.919 11 10.9346 11C10.9502 11 10.9658 11 10.9813 11C10.9969 11 11.0125 11 11.0281 11C11.0437 11 11.0593 11 11.0749 11C11.0904 11 11.106 11 11.1216 11C11.1372 11 11.1529 11 11.1685 11C11.1841 11 11.1997 11 11.2153 11C11.2309 11 11.2465 11 11.2622 11C11.2778 11 11.2934 11 11.309 11C11.3247 11 11.3403 11 11.3559 11C11.3716 11 11.3872 11 11.4028 11C11.4185 11 11.4341 11 11.4498 11C11.4654 11 11.4811 11 11.4967 11C11.5124 11 11.528 11 11.5437 11C11.5594 11 11.575 11 11.5907 11C11.6064 11 11.622 11 11.6377 11C11.6534 11 11.669 11 11.6847 11C11.7004 11 11.7161 11 11.7317 11C11.7474 11 11.7631 11 11.7788 11C11.7945 11 11.8101 11 11.8258 11C11.8415 11 11.8572 11 11.8729 11C11.8886 11 11.9043 11 11.92 11C11.9357 11 11.9514 11 11.9671 11C11.9828 11 11.9985 11 12.0142 11C12.0299 11 12.0456 11 12.0613 11C12.077 11 12.0927 11 12.1084 11C12.1241 11 12.1398 11 12.1555 11C12.1712 11 12.1869 11 12.2027 11C12.2184 11 12.2341 11 12.2498 11C12.2655 11 12.2812 11 12.2969 11C12.3127 11 12.3284 11 12.3441 11C12.3598 11 12.3755 11 12.3912 11C12.407 11 12.4227 11 12.4384 11C12.4541 11 12.4698 11 12.4856 11C12.5013 11 12.517 11 12.5327 11C12.5484 11 12.5642 11 12.5799 11C12.5956 11 12.6113 11 12.6271 11C12.6428 11 12.6585 11 12.6742 11C12.6899 11 12.7057 11 12.7214 11C12.7371 11 12.7528 11 12.7686 11C12.7843 11 12.8 11 12.8157 11C12.8314 11 12.8472 11 12.8629 11C12.8786 11 12.8943 11 12.91 11C12.9258 11 12.9415 11 12.9572 11C12.9729 11 12.9886 11 13.0043 11C13.0201 11 13.0358 11 13.0515 11C13.0672 11 13.0829 11 13.0986 11C13.1143 11 13.13 11 13.1458 11C13.1615 11 13.1772 11 13.1929 11C13.2086 11 13.2243 11 13.24 11C13.2557 11 13.2714 11 13.2871 11C13.3028 11 13.3185 11 13.3342 11C13.3499 11 13.3656 11 13.3813 11C13.397 11 13.4127 11 13.4284 11C13.4441 11 13.4598 11 13.4754 11C13.4911 11 13.5068 11 13.5225 11C13.5382 11 13.5539 11 13.5695 11C13.5852 11 13.6009 11 13.6166 11C13.6322 11 13.6479 11 13.6636 11C13.6793 11 13.6949 11 13.7106 11C13.7262 11 13.7419 11 13.7576 11C13.7732 11 13.7889 11 13.8045 11C13.8202 11 13.8358 11 13.8515 11C13.8671 11 13.8828 11 13.8984 11C13.9141 11 13.9297 11 13.9453 11C13.961 11 13.9766 11 13.9922 11C14.0079 11 14.0235 11 14.0391 11C14.0547 11 14.0704 11 14.086 11C14.1016 11 14.1172 11 14.1328 11C14.1484 11 14.164 11 14.1796 11C14.1952 11 14.2108 11 14.2264 11C14.242 11 14.2576 11 14.2732 11C14.2888 11 14.3043 11 14.3199 11C14.3355 11 14.3511 11 14.3666 11C14.3822 11 14.3978 11 14.4133 11C14.4289 11 14.4445 11 14.46 11C14.4756 11 14.4911 11 14.5067 11C14.5222 11 14.5377 11 14.5533 11C14.5688 11 14.5843 11 14.5999 11C14.6154 11 14.6309 11 14.6464 11C14.6619 11 14.6774 11 14.6929 11C14.7085 11 14.724 11 14.7394 11C14.7549 11 14.7704 11 14.7859 11C14.8014 11 14.8169 11 14.8324 11C14.8478 11 14.8633 11 14.8788 11C14.8942 11 14.9097 11 14.9251 11C14.9406 11 14.956 11 14.9715 11C14.9869 11 15.0024 11 15.0178 11C15.0332 11 15.0486 11 15.0641 11C15.0795 11 15.0949 11 15.1103 11C15.1257 11 15.1411 11 15.1565 11C15.1719 11 15.1873 11 15.2027 11C15.218 11 15.2334 11 15.2488 11C15.2642 11 15.2795 11 15.2949 11C15.3102 11 15.3256 11 15.3409 11C15.3563 11 15.3716 11 15.3869 11C15.4023 11 15.4176 11 15.4329 11C15.4482 11 15.4635 11 15.4788 11C15.4941 11 15.5094 11 15.5247 11C15.54 11 15.5553 11 15.5706 11C15.5858 11 15.6011 11 15.6164 11C15.6316 11 15.6469 11 15.6621 11C15.6774 11 15.6926 11 15.7078 11C15.7231 11 15.7383 11 15.7535 11C15.7687 11 15.7839 11 15.7991 11C15.8143 11 15.8295 11 15.8447 11C15.8599 11 15.8751 11 15.8902 11C15.9054 11 15.9206 11 15.9357 11C15.9509 11 15.966 11 15.9811 11C15.9963 11 16.0114 11 16.0265 11C16.0416 11 16.0568 11 16.0719 11C16.087 11 16.1021 11 16.1171 11C16.1322 11 16.1473 11 16.1624 11C16.1774 11 16.1925 11 16.2076 11C16.2226 11 16.2377 11 16.2527 11C16.2677 11 16.2827 11 16.2978 11C16.3128 11 16.3278 11 16.3428 11C16.3578 11 16.3728 11 16.3877 11C16.4027 11 16.4177 11 16.4327 11C16.4476 11 16.4626 11 16.4775 11C16.4925 11 16.5074 11 16.5223 11C16.5372 11 16.5521 11 16.567 11C16.582 11 16.5968 11 16.6117 11C16.6266 11 16.6415 11 16.6564 11C16.6712 11 16.6861 11 16.7009 11C16.7158 11 16.7306 11 16.7454 11C16.7602 11 16.7751 11 16.7899 11C16.8047 11 16.8195 11 16.8342 11C16.849 11 16.8638 11 16.8786 11C16.8933 11 16.9081 11 16.9228 11C16.9376 11 16.9523 11 16.967 11C16.9817 11 16.9964 11 17.0111 11C17.0258 11 17.0405 11 17.0552 11C17.0699 11 17.0845 11 17.0992 11C17.1139 11 17.1285 11 17.1431 11C17.1578 11 17.1724 11 17.187 11C17.2016 11 17.2162 11 17.2308 11C17.2454 11 17.26 11 17.2745 11C17.2891 11 17.3036 11 17.3182 11C17.3327 11 17.3473 11 17.3618 11C17.3763 11 17.3908 11 17.4053 11C17.4198 11 17.4343 11 17.4487 11C17.4632 11 17.4777 11 17.4921 11C17.5066 11 17.521 11 17.5354 11C17.5498 11 17.5643 11 17.5786 11C17.593 11 17.6074 11 17.6218 11C17.6362 11 17.6505 11 17.6649 11C17.6792 11 17.6936 11 17.7079 11C17.7222 11 17.7365 11 17.7508 11C17.7651 11 17.7794 11 17.7937 11C17.8079 11 17.8222 11 17.8365 11C17.8507 11 17.8649 11 17.8792 11C17.8934 11 17.9076 11 17.9218 11C17.936 11 17.9501 11 17.9643 11C17.9785 11 17.9926 11 18.0068 11C18.0209 11 18.035 11 18.0492 11C18.0633 11 18.0774 11 18.0914 11C18.1055 11 18.1196 11 18.1337 11C18.1477 11 18.1618 11 18.1758 11C18.1898 11 18.2038 11 18.2178 11C18.2318 11 18.2458 11 18.2598 11C18.2738 11 18.2877 11 18.3017 11C18.3156 11 18.3296 11 18.3435 11C18.3574 11 18.3713 11 18.3852 11C18.3991 11 18.413 11 18.4268 11C18.4407 11 18.4545 11 18.4683 11C18.4822 11 18.496 11 18.5098 11C18.5236 11 18.5374 11 18.5512 11C18.5649 11 18.5787 11 18.5924 11C18.6062 11 18.6199 11 18.6336 11C18.6473 11 18.661 11 18.6747 11C18.6884 11 18.702 11 18.7157 11C18.7293 11 18.743 11 18.7566 11C18.7702 11 18.7838 11 18.7974 11C18.811 11 18.8245 11 18.8381 11C18.8517 11 18.8652 11 18.8787 11C18.8922 11 18.9057 11 18.9192 11C18.9327 11 18.9462 11 18.9597 11C18.9731 11 18.9866 11 19 11V9C18.9866 9 18.9731 9 18.9597 9C18.9462 9 18.9327 9 18.9192 9C18.9057 9 18.8922 9 18.8787 9C18.8652 9 18.8517 9 18.8381 9C18.8245 9 18.811 9 18.7974 9C18.7838 9 18.7702 9 18.7566 9C18.743 9 18.7293 9 18.7157 9C18.702 9 18.6884 9 18.6747 9C18.661 9 18.6473 9 18.6336 9C18.6199 9 18.6062 9 18.5924 9C18.5787 9 18.5649 9 18.5512 9C18.5374 9 18.5236 9 18.5098 9C18.496 9 18.4822 9 18.4683 9C18.4545 9 18.4407 9 18.4268 9C18.413 9 18.3991 9 18.3852 9C18.3713 9 18.3574 9 18.3435 9C18.3296 9 18.3156 9 18.3017 9C18.2877 9 18.2738 9 18.2598 9C18.2458 9 18.2318 9 18.2178 9C18.2038 9 18.1898 9 18.1758 9C18.1618 9 18.1477 9 18.1337 9C18.1196 9 18.1055 9 18.0914 9C18.0774 9 18.0633 9 18.0492 9C18.035 9 18.0209 9 18.0068 9C17.9926 9 17.9785 9 17.9643 9C17.9501 9 17.936 9 17.9218 9C17.9076 9 17.8934 9 17.8792 9C17.8649 9 17.8507 9 17.8365 9C17.8222 9 17.8079 9 17.7937 9C17.7794 9 17.7651 9 17.7508 9C17.7365 9 17.7222 9 17.7079 9C17.6936 9 17.6792 9 17.6649 9C17.6505 9 17.6362 9 17.6218 9C17.6074 9 17.593 9 17.5786 9C17.5643 9 17.5498 9 17.5354 9C17.521 9 17.5066 9 17.4921 9C17.4777 9 17.4632 9 17.4487 9C17.4343 9 17.4198 9 17.4053 9C17.3908 9 17.3763 9 17.3618 9C17.3473 9 17.3327 9 17.3182 9C17.3036 9 17.2891 9 17.2745 9C17.26 9 17.2454 9 17.2308 9C17.2162 9 17.2016 9 17.187 9C17.1724 9 17.1578 9 17.1431 9C17.1285 9 17.1139 9 17.0992 9C17.0845 9 17.0699 9 17.0552 9C17.0405 9 17.0258 9 17.0111 9C16.9964 9 16.9817 9 16.967 9C16.9523 9 16.9376 9 16.9228 9C16.9081 9 16.8933 9 16.8786 9C16.8638 9 16.849 9 16.8342 9C16.8195 9 16.8047 9 16.7899 9C16.7751 9 16.7602 9 16.7454 9C16.7306 9 16.7158 9 16.7009 9C16.6861 9 16.6712 9 16.6564 9C16.6415 9 16.6266 9 16.6117 9C16.5968 9 16.582 9 16.567 9C16.5521 9 16.5372 9 16.5223 9C16.5074 9 16.4925 9 16.4775 9C16.4626 9 16.4476 9 16.4327 9C16.4177 9 16.4027 9 16.3877 9C16.3728 9 16.3578 9 16.3428 9C16.3278 9 16.3128 9 16.2978 9C16.2827 9 16.2677 9 16.2527 9C16.2377 9 16.2226 9 16.2076 9C16.1925 9 16.1774 9 16.1624 9C16.1473 9 16.1322 9 16.1171 9C16.1021 9 16.087 9 16.0719 9C16.0568 9 16.0416 9 16.0265 9C16.0114 9 15.9963 9 15.9811 9C15.966 9 15.9509 9 15.9357 9C15.9206 9 15.9054 9 15.8902 9C15.8751 9 15.8599 9 15.8447 9C15.8295 9 15.8143 9 15.7991 9C15.7839 9 15.7687 9 15.7535 9C15.7383 9 15.7231 9 15.7078 9C15.6926 9 15.6774 9 15.6621 9C15.6469 9 15.6316 9 15.6164 9C15.6011 9 15.5858 9 15.5706 9C15.5553 9 15.54 9 15.5247 9C15.5094 9 15.4941 9 15.4788 9C15.4635 9 15.4482 9 15.4329 9C15.4176 9 15.4023 9 15.3869 9C15.3716 9 15.3563 9 15.3409 9C15.3256 9 15.3102 9 15.2949 9C15.2795 9 15.2642 9 15.2488 9C15.2334 9 15.218 9 15.2027 9C15.1873 9 15.1719 9 15.1565 9C15.1411 9 15.1257 9 15.1103 9C15.0949 9 15.0795 9 15.0641 9C15.0486 9 15.0332 9 15.0178 9C15.0024 9 14.9869 9 14.9715 9C14.956 9 14.9406 9 14.9251 9C14.9097 9 14.8942 9 14.8788 9C14.8633 9 14.8478 9 14.8324 9C14.8169 9 14.8014 9 14.7859 9C14.7704 9 14.7549 9 14.7394 9C14.724 9 14.7085 9 14.6929 9C14.6774 9 14.6619 9 14.6464 9C14.6309 9 14.6154 9 14.5999 9C14.5843 9 14.5688 9 14.5533 9C14.5377 9 14.5222 9 14.5067 9C14.4911 9 14.4756 9 14.46 9C14.4445 9 14.4289 9 14.4133 9C14.3978 9 14.3822 9 14.3666 9C14.3511 9 14.3355 9 14.3199 9C14.3043 9 14.2888 9 14.2732 9C14.2576 9 14.242 9 14.2264 9C14.2108 9 14.1952 9 14.1796 9C14.164 9 14.1484 9 14.1328 9C14.1172 9 14.1016 9 14.086 9C14.0704 9 14.0547 9 14.0391 9C14.0235 9 14.0079 9 13.9922 9C13.9766 9 13.961 9 13.9453 9C13.9297 9 13.9141 9 13.8984 9C13.8828 9 13.8671 9 13.8515 9C13.8358 9 13.8202 9 13.8045 9C13.7889 9 13.7732 9 13.7576 9C13.7419 9 13.7262 9 13.7106 9C13.6949 9 13.6793 9 13.6636 9C13.6479 9 13.6322 9 13.6166 9C13.6009 9 13.5852 9 13.5695 9C13.5539 9 13.5382 9 13.5225 9C13.5068 9 13.4911 9 13.4754 9C13.4598 9 13.4441 9 13.4284 9C13.4127 9 13.397 9 13.3813 9C13.3656 9 13.3499 9 13.3342 9C13.3185 9 13.3028 9 13.2871 9C13.2714 9 13.2557 9 13.24 9C13.2243 9 13.2086 9 13.1929 9C13.1772 9 13.1615 9 13.1458 9C13.13 9 13.1143 9 13.0986 9C13.0829 9 13.0672 9 13.0515 9C13.0358 9 13.0201 9 13.0043 9C12.9886 9 12.9729 9 12.9572 9C12.9415 9 12.9258 9 12.91 9C12.8943 9 12.8786 9 12.8629 9C12.8472 9 12.8314 9 12.8157 9C12.8 9 12.7843 9 12.7686 9C12.7528 9 12.7371 9 12.7214 9C12.7057 9 12.6899 9 12.6742 9C12.6585 9 12.6428 9 12.6271 9C12.6113 9 12.5956 9 12.5799 9C12.5642 9 12.5484 9 12.5327 9C12.517 9 12.5013 9 12.4856 9C12.4698 9 12.4541 9 12.4384 9C12.4227 9 12.407 9 12.3912 9C12.3755 9 12.3598 9 12.3441 9C12.3284 9 12.3127 9 12.2969 9C12.2812 9 12.2655 9 12.2498 9C12.2341 9 12.2184 9 12.2027 9C12.1869 9 12.1712 9 12.1555 9C12.1398 9 12.1241 9 12.1084 9C12.0927 9 12.077 9 12.0613 9C12.0456 9 12.0299 9 12.0142 9C11.9985 9 11.9828 9 11.9671 9C11.9514 9 11.9357 9 11.92 9C11.9043 9 11.8886 9 11.8729 9C11.8572 9 11.8415 9 11.8258 9C11.8101 9 11.7945 9 11.7788 9C11.7631 9 11.7474 9 11.7317 9C11.7161 9 11.7004 9 11.6847 9C11.669 9 11.6534 9 11.6377 9C11.622 9 11.6064 9 11.5907 9C11.575 9 11.5594 9 11.5437 9C11.528 9 11.5124 9 11.4967 9C11.4811 9 11.4654 9 11.4498 9C11.4341 9 11.4185 9 11.4028 9C11.3872 9 11.3716 9 11.3559 9C11.3403 9 11.3247 9 11.309 9C11.2934 9 11.2778 9 11.2622 9C11.2465 9 11.2309 9 11.2153 9C11.1997 9 11.1841 9 11.1685 9C11.1529 9 11.1372 9 11.1216 9C11.106 9 11.0904 9 11.0749 9C11.0593 9 11.0437 9 11.0281 9C11.0125 9 10.9969 9 10.9813 9C10.9658 9 10.9502 9 10.9346 9C10.919 9 10.9035 9 10.8879 9C10.8724 9 10.8568 9 10.8412 9C10.8257 9 10.8101 9 10.7946 9C10.7791 9 10.7635 9 10.748 9C10.7324 9 10.7169 9 10.7014 9C10.6859 9 10.6703 9 10.6548 9C10.6393 9 10.6238 9 10.6083 9C10.5928 9 10.5773 9 10.5618 9C10.5463 9 10.5308 9 10.5153 9C10.4998 9 10.4844 9 10.4689 9C10.4534 9 10.4379 9 10.4225 9C10.407 9 10.3916 9 10.3761 9C10.3606 9 10.3452 9 10.3298 9C10.3143 9 10.2989 9 10.2834 9C10.268 9 10.2526 9 10.2372 9C10.2218 9 10.2063 9 10.1909 9C10.1755 9 10.1601 9 10.1447 9C10.1293 9 10.1139 9 10.0986 9C10.0832 9 10.0678 9 10.0524 9C10.0371 9 10.0217 9 10.0063 9C9.99099 9 9.97564 9 9.9603 9C9.94495 9 9.92962 9 9.91428 9C9.89895 9 9.88363 9 9.86831 9C9.853 9 9.83769 9 9.82238 9C9.80708 9 9.79178 9 9.77649 9C9.7612 9 9.74592 9 9.73065 9C9.71537 9 9.7001 9 9.68484 9C9.66958 9 9.65433 9 9.63908 9C9.62384 9 9.6086 9 9.59337 9C9.57813 9 9.56291 9 9.5477 9C9.53248 9 9.51727 9 9.50207 9C9.48687 9 9.47168 9 9.45649 9C9.44131 9 9.42613 9 9.41096 9C9.39579 9 9.38063 9 9.36547 9C9.35032 9 9.33518 9 9.32004 9C9.3049 9 9.28977 9 9.27465 9C9.25953 9 9.24442 9 9.22931 9C9.21421 9 9.19912 9 9.18403 9C9.16894 9 9.15386 9 9.13879 9C9.12372 9 9.10866 9 9.09361 9C9.07856 9 9.06351 9 9.04848 9C9.03345 9 9.01842 9 9.0034 9C8.98839 9 8.97338 9 8.95838 9C8.94338 9 8.92839 9 8.91341 9C8.89843 9 8.88346 9 8.8685 9C8.85353 9 8.83858 9 8.82364 9C8.8087 9 8.79376 9 8.77884 9C8.76391 9 8.749 9 8.73409 9C8.71919 9 8.70429 9 8.68941 9C8.67452 9 8.65965 9 8.64478 9C8.62992 9 8.61506 9 8.60021 9C8.58537 9 8.57053 9 8.55571 9C8.54088 9 8.52607 9 8.51126 9C8.49646 9 8.48166 9 8.46688 9C8.45209 9 8.43732 9 8.42255 9C8.40779 9 8.39304 9 8.37829 9C8.36355 9 8.34882 9 8.3341 9C8.31938 9 8.30467 9 8.28997 9C8.27527 9 8.26058 9 8.2459 9C8.23122 9 8.21655 9 8.2019 9C8.18724 9 8.1726 9 8.15796 9C8.14333 9 8.12871 9 8.11409 9C8.09948 9 8.08488 9 8.07029 9C8.0557 9 8.04113 9 8.02656 9C8.01199 9 7.99744 9 7.9829 9C7.96836 9 7.95382 9 7.9393 9C7.92479 9 7.91028 9 7.89578 9C7.88129 9 7.8668 9 7.85233 9C7.83786 9 7.8234 9 7.80895 9C7.7945 9 7.78007 9 7.76564 9C7.75122 9 7.73681 9 7.72241 9C7.70801 9 7.69362 9 7.67925 9C7.66487 9 7.65051 9 7.63616 9C7.62181 9 7.60748 9 7.59315 9C7.57883 9 7.56452 9 7.55022 9C7.53592 9 7.52163 9 7.50736 9C7.49309 9 7.47883 9 7.46458 9C7.45033 9 7.4361 9 7.42188 9C7.40765 9 7.39345 9 7.37925 9C7.36506 9 7.35087 9 7.33671 9C7.32254 9 7.30838 9 7.29424 9C7.2801 9 7.26597 9 7.25186 9C7.23774 9 7.22364 9 7.20955 9C7.19547 9 7.18139 9 7.16733 9C7.15327 9 7.13923 9 7.1252 9C7.11116 9 7.09715 9 7.08314 9C7.06914 9 7.05515 9 7.04117 9C7.0272 9 7.01324 9 6.99929 9C6.98534 9 6.97141 9 6.95749 9C6.94357 9 6.92966 9 6.91577 9C6.90188 9 6.88801 9 6.87415 9C6.86029 9 6.84644 9 6.83261 9C6.81878 9 6.80496 9 6.79116 9C6.77736 9 6.76357 9 6.7498 9C6.73603 9 6.72227 9 6.70853 9C6.69478 9 6.68106 9 6.66734 9C6.65363 9 6.63994 9 6.62625 9C6.61257 9 6.59891 9 6.58526 9C6.5716 9 6.55797 9 6.54435 9C6.53073 9 6.51712 9 6.50354 9C6.48995 9 6.47637 9 6.46282 9C6.44926 9 6.43572 9 6.42219 9C6.40867 9 6.39516 9 6.38166 9C6.36817 9 6.35469 9 6.34123 9C6.32777 9 6.31432 9 6.30089 9C6.28746 9 6.27405 9 6.26065 9C6.24725 9 6.23387 9 6.22051 9C6.20714 9 6.1938 9 6.18047 9C6.16713 9 6.15382 9 6.14052 9C6.12722 9 6.11394 9 6.10068 9C6.08741 9 6.07416 9 6.06093 9C6.0477 9 6.03449 9 6.02129 9C6.00809 9 5.99491 9 5.98175 9C5.96859 9 5.95544 9 5.94231 9C5.92919 9 5.91607 9 5.90298 9C5.88989 9 5.87681 9 5.86375 9C5.85069 9 5.83765 9 5.82463 9C5.8116 9 5.79859 9 5.78561 9C5.77262 9 5.75965 9 5.74669 9C5.73374 9 5.7208 9 5.70789 9C5.69497 9 5.68207 9 5.66919 9C5.65631 9 5.64344 9 5.6306 9C5.61775 9 5.60492 9 5.59211 9C5.57931 9 5.56651 9 5.55374 9C5.54097 9 5.52822 9 5.51548 9C5.50274 9 5.49003 9 5.47733 9C5.46463 9 5.45195 9 5.43929 9C5.42663 9 5.41399 9 5.40136 9C5.38874 9 5.37613 9 5.36355 9C5.35096 9 5.3384 9 5.32585 9C5.3133 9 5.30077 9 5.28826 9C5.27575 9 5.26326 9 5.25079 9C5.23832 9 5.22587 9 5.21344 9C5.20101 9 5.18859 9 5.1762 9C5.16381 9 5.15143 9 5.13908 9C5.12672 9 5.11439 9 5.10207 9C5.08976 9 5.07747 9 5.06519 9C5.05292 9 5.04066 9 5.02842 9C5.01619 9 5.00397 9 4.99178 9C4.97958 9 4.96741 9 4.95525 9C4.9431 9 4.93096 9 4.91885 9C4.90674 9 4.89464 9 4.88257 9C4.87049 9 4.85844 9 4.84641 9C4.83438 9 4.82236 9 4.81037 9C4.79838 9 4.78641 9 4.77446 9C4.76251 9 4.75058 9 4.73867 9C4.72677 9 4.71488 9 4.70301 9C4.69115 9 4.6793 9 4.66748 9C4.65565 9 4.64385 9 4.63207 9C4.62029 9 4.60853 9 4.59679 9C4.58505 9 4.57333 9 4.56163 9C4.54994 9 4.53826 9 4.52661 9C4.51496 9 4.50333 9 4.49172 9C4.48011 9 4.46852 9 4.45695 9C4.44539 9 4.43384 9 4.42232 9C4.4108 9 4.39929 9 4.38782 9C4.37634 9 4.36488 9 4.35345 9C4.34201 9 4.3306 9 4.31921 9C4.30782 9 4.29645 9 4.28511 9C4.27376 9 4.26244 9 4.25114 9C4.23984 9 4.22856 9 4.2173 9C4.20605 9 4.19482 9 4.18361 9C4.1724 9 4.16121 9 4.15005 9C4.13888 9 4.12774 9 4.11662 9C4.1055 9 4.09441 9 4.08333 9C4.07226 9 4.06121 9 4.05019 9C4.03916 9 4.02816 9 4.01718 9C4.0062 9 3.99524 9 3.98431 9C3.97338 9 3.96247 9 3.95158 9C3.94069 9 3.92983 9 3.91899 9C3.90815 9 3.89734 9 3.88655 9C3.87576 9 3.86499 9 3.85424 9C3.8435 9 3.83278 9 3.82208 9C3.81139 9 3.80072 9 3.79007 9C3.77942 9 3.7688 9 3.7582 9C3.7476 9 3.73702 9 3.72647 9C3.71592 9 3.7054 9 3.69489 9C3.68439 9 3.67391 9 3.66346 9C3.65301 9 3.64258 9 3.63218 9C3.62177 9 3.61139 9 3.60104 9C3.59068 9 3.58035 9 3.57005 9C3.55975 9 3.54947 9 3.53921 9C3.52896 9 3.51873 9 3.50852 9C3.49832 9 3.48814 9 3.47798 9C3.46783 9 3.4577 9 3.4476 9C3.43749 9 3.42742 9 3.41736 9C3.40731 9 3.39728 9 3.38728 9C3.37728 9 3.3673 9 3.35735 9C3.3474 9 3.33748 9 3.32758 9C3.31768 9 3.30781 9 3.29796 9C3.28812 9 3.27829 9 3.2685 9C3.2587 9 3.24894 9 3.23919 9C3.22945 9 3.21973 9 3.21004 9C3.20035 9 3.19069 9 3.18105 9C3.17141 9 3.1618 9 3.15222 9C3.14263 9 3.13308 9 3.12354 9C3.11401 9 3.10451 9 3.09503 9C3.08555 9 3.0761 9 3.06668 9C3.05725 9 3.04785 9 3.03848 9C3.02911 9 3.01977 9 3.01045 9C3.00114 9 2.99185 9 2.98258 9C2.97332 9 2.96409 9 2.95488 9C2.94567 9 2.93649 9 2.92734 9C2.91818 9 2.90906 9 2.89996 9C2.89086 9 2.88179 9 2.87275 9C2.86371 9 2.85469 9 2.8457 9C2.83672 9 2.82776 9 2.81882 9C2.80989 9 2.80099 9 2.79211 9C2.78324 9 2.77439 9 2.76557 9C2.75675 9 2.74796 9 2.73919 9C2.73043 9 2.7217 9 2.71299 9C2.70428 9 2.6956 9 2.68695 9C2.6783 9 2.66968 9 2.66109 9C2.6525 9 2.64393 9 2.6354 9C2.62686 9 2.61835 9 2.60988 9C2.6014 9 2.59295 9 2.58453 9C2.57611 9 2.56772 9 2.55935 9C2.55099 9 2.54266 9 2.53435 9C2.52605 9 2.51777 9 2.50953 9C2.50128 9 2.49306 9 2.48488 9C2.47669 9 2.46853 9 2.4604 9C2.45228 9 2.44418 9 2.43611 9C2.42804 9 2.42 9 2.41199 9C2.40398 9 2.396 9 2.38805 9C2.3801 9 2.37218 9 2.36429 9C2.3564 9 2.34854 9 2.3407 9C2.33287 9 2.32507 9 2.3173 9C2.30953 9 2.30179 9 2.29408 9C2.28637 9 2.27869 9 2.27104 9C2.2634 9 2.25578 9 2.24819 9C2.2406 9 2.23304 9 2.22552 9C2.21799 9 2.21049 9 2.20303 9C2.19556 9 2.18813 9 2.18072 9C2.17332 9 2.16594 9 2.1586 9C2.15126 9 2.14395 9 2.13667 9C2.12939 9 2.12214 9 2.11492 9C2.1077 9 2.10052 9 2.09336 9C2.08621 9 2.07908 9 2.07199 9C2.0649 9 2.05784 9 2.05081 9C2.04378 9 2.03678 9 2.02981 9C2.02285 9 2.01591 9 2.00901 9C2.00211 9 1.99524 9 1.9884 9C1.98156 9 1.97475 9 1.96798 9C1.9612 9 1.95446 9 1.94775 9C1.94104 9 1.93436 9 1.92771 9C1.92106 9 1.91445 9 1.90787 9C1.90128 9 1.89474 9 1.88822 9C1.8817 9 1.87522 9 1.86876 9C1.86231 9 1.85589 9 1.8495 9C1.84312 9 1.83676 9 1.83044 9C1.82412 9 1.81783 9 1.81158 9C1.80532 9 1.7991 9 1.79291 9C1.78672 9 1.78056 9 1.77444 9C1.76832 9 1.76223 9 1.75617 9C1.75011 9 1.74409 9 1.7381 9C1.73211 9 1.72615 9 1.72023 9C1.7143 9 1.70841 9 1.70256 9C1.6967 9 1.69088 9 1.68509 9C1.6793 9 1.67354 9 1.66782 9C1.6621 9 1.65641 9 1.65076 9C1.64511 9 1.63949 9 1.6339 9C1.62832 9 1.62276 9 1.61725 9C1.61173 9 1.60625 9 1.6008 9C1.59535 9 1.58993 9 1.58455 9C1.57917 9 1.57383 9 1.56852 9C1.56321 9 1.55793 9 1.55269 9C1.54745 9 1.54224 9 1.53707 9C1.53189 9 1.52676 9 1.52165 9C1.51655 9 1.51148 9 1.50645 9C1.50142 9 1.49642 9 1.49146 9C1.48649 9 1.48156 9 1.47667 9C1.47178 9 1.46692 9 1.4621 9C1.45728 9 1.45249 9 1.44774 9C1.44299 9 1.43827 9 1.43359 9C1.42891 9 1.42427 9 1.41966 9C1.41505 9 1.41048 9 1.40594 9C1.4014 9 1.3969 9 1.39243 9C1.38797 9 1.38354 9 1.37914 9C1.37475 9 1.37039 9 1.36607 9C1.36175 9 1.35746 9 1.35321 9C1.34896 9 1.34475 9 1.34058 9C1.3364 9 1.33226 9 1.32815 9C1.32405 9 1.31998 9 1.31595 9C1.31192 9 1.30793 9 1.30397 9C1.30001 9 1.29609 9 1.29221 9C1.28832 9 1.28448 9 1.28067 9C1.27686 9 1.27308 9 1.26935 9C1.26561 9 1.26191 9 1.25825 9C1.25459 9 1.25096 9 1.24738 9C1.24379 9 1.24024 9 1.23672 9C1.23321 9 1.22974 9 1.2263 9C1.22286 9 1.21946 9 1.2161 9C1.21273 9 1.20941 9 1.20612 9C1.20283 9 1.19959 9 1.19637 9C1.19316 9 1.18999 9 1.18685 9C1.18372 9 1.18062 9 1.17756 9C1.1745 9 1.17148 9 1.16849 9C1.16551 9 1.16256 9 1.15966 9C1.15675 9 1.15388 9 1.15105 9C1.14822 9 1.14543 9 1.14267 9C1.13992 9 1.13721 9 1.13453 9C1.13185 9 1.12922 9 1.12662 9C1.12402 9 1.12146 9 1.11894 9C1.11642 9 1.11393 9 1.11149 9C1.10905 9 1.10664 9 1.10428 9C1.10191 9 1.09959 9 1.0973 9C1.09501 9 1.09277 9 1.09056 9C1.08835 9 1.08618 9 1.08405 9C1.08192 9 1.07983 9 1.07778 9C1.07573 9 1.07372 9 1.07175 9C1.06978 9 1.06785 9 1.06596 9C1.06406 9 1.06221 9 1.0604 9C1.05859 9 1.05682 9 1.05509 9C1.05335 9 1.05166 9 1.05001 9C1.04836 9 1.04675 9 1.04518 9C1.0436 9 1.04207 9 1.04058 9C1.03909 9 1.03764 9 1.03623 9C1.03482 9 1.03345 9 1.03212 9C1.03079 9 1.02951 9 1.02826 9C1.02701 9 1.02581 9 1.02464 9C1.02347 9 1.02235 9 1.02126 9C1.02018 9 1.01914 9 1.01814 9C1.01713 9 1.01617 9 1.01525 9C1.01433 9 1.01345 9 1.01262 9C1.01178 9 1.01098 9 1.01023 9C1.00947 9 1.00876 9 1.00809 9C1.00742 9 1.00679 9 1.0062 9C1.00561 9 1.00506 9 1.00456 9C1.00405 9 1.00359 9 1.00317 9C1.00275 9 1.00237 9 1.00203 9C1.00169 9 1.0014 9 1.00114 9C1.00089 9 1.00068 9 1.00051 9C1.00034 9 1.00021 9 1.00013 9C1.00004 9 1 9 1 10ZM18 10C18 14.4183 14.4183 18 10 18V20C15.5228 20 20 15.5228 20 10H18ZM10 18C5.58172 18 2 14.4183 2 10H0C0 15.5228 4.47715 20 10 20V18ZM2 10C2 5.58172 5.58172 2 10 2V0C4.47715 0 0 4.47715 0 10H2ZM10 2C14.4183 2 18 5.58172 18 10H20C20 4.47715 15.5228 0 10 0V2ZM10 1C9.24742 1.6585 9.24713 1.65817 9.24687 1.65788C9.24683 1.65782 9.2466 1.65756 9.2465 1.65745C9.24632 1.65724 9.24625 1.65716 9.24629 1.65721C9.24638 1.65731 9.24694 1.65796 9.24795 1.65913C9.24997 1.66147 9.25381 1.66595 9.25937 1.67251C9.27049 1.68564 9.2885 1.70712 9.3127 1.73668C9.36111 1.79582 9.43416 1.88717 9.5262 2.00854C9.71044 2.25149 9.96977 2.61343 10.2594 3.07687C10.8406 4.00677 11.5333 5.32856 11.9931 6.905C12.9015 10.0195 12.9176 14.147 9.24742 18.3415L10.7526 19.6585C14.9574 14.853 14.9735 9.98052 13.9131 6.345C13.3885 4.54644 12.6047 3.05573 11.9554 2.01688C11.6298 1.49595 11.3355 1.08444 11.1198 0.800056C11.0119 0.657754 10.9234 0.546954 10.8603 0.469864C10.8288 0.431309 10.8035 0.401154 10.7853 0.379675C10.7762 0.368935 10.7689 0.360361 10.7634 0.353987C10.7607 0.3508 10.7584 0.348162 10.7566 0.346079C10.7557 0.345038 10.7549 0.344134 10.7542 0.34337C10.7539 0.342989 10.7535 0.342519 10.7533 0.342328C10.7529 0.341895 10.7526 0.341495 10 1ZM10 1C9.25621 0.331582 9.25586 0.331979 9.25547 0.332409C9.2553 0.332599 9.25488 0.333065 9.25454 0.333445C9.25386 0.334205 9.25306 0.335104 9.25213 0.336142C9.25028 0.338217 9.24795 0.340846 9.24514 0.344025C9.23951 0.350383 9.23199 0.358942 9.22265 0.369667C9.20399 0.391115 9.17809 0.421241 9.1457 0.45977C9.08093 0.536806 8.99013 0.647562 8.87932 0.789831C8.65788 1.07415 8.35553 1.48566 8.02108 2.00668C7.35421 3.04558 6.54846 4.53734 6.00905 6.33804C4.91742 9.98218 4.93719 14.8624 9.25621 19.6684L10.7438 18.3316C6.97479 14.1376 6.99456 10.0178 7.92494 6.91196C8.39653 5.33766 9.10728 4.01692 9.70416 3.08707C10.0016 2.62372 10.2679 2.26179 10.4572 2.01876C10.5518 1.89736 10.6268 1.80597 10.6766 1.74677C10.7015 1.71719 10.72 1.69568 10.7314 1.68252C10.7372 1.67594 10.7411 1.67145 10.7432 1.66909C10.7442 1.66791 10.7448 1.66726 10.7449 1.66715C10.745 1.66709 10.7449 1.66717 10.7447 1.66738C10.7446 1.66748 10.7444 1.66774 10.7443 1.6678C10.7441 1.66809 10.7438 1.66842 10 1Z" fill="#A1A3C0"/>
</svg>
