<svg width="40" height="40" viewBox="0 0 40 40" fill="none" xmlns="http://www.w3.org/2000/svg">
<path d="M32 30V10C32 8.89543 31.1046 8 30 8H10C8.89543 8 8 8.89543 8 10V30C8 31.1046 8.89543 32 10 32H30C31.1046 32 32 31.1046 32 30Z" fill="#2EA0AE" stroke="#2EA0AE" stroke-width="2"/>
<path d="M21.7071 24.2929C22.0976 24.6834 22.0976 25.3166 21.7071 25.7071C21.3166 26.0976 20.6834 26.0976 20.2929 25.7071L21.7071 24.2929ZM16 20L15.2929 20.7071C14.9024 20.3166 14.9024 19.6834 15.2929 19.2929L16 20ZM20.2929 14.2929C20.6834 13.9024 21.3166 13.9024 21.7071 14.2929C22.0976 14.6834 22.0976 15.3166 21.7071 15.7071L20.2929 14.2929ZM20.2929 25.7071L15.2929 20.7071L16.7071 19.2929L21.7071 24.2929L20.2929 25.7071ZM15.2929 19.2929L20.2929 14.2929L21.7071 15.7071L16.7071 20.7071L15.2929 19.2929Z" fill="white"/>
</svg>
