<svg width="20" height="11" viewBox="0 0 20 11" fill="none" xmlns="http://www.w3.org/2000/svg">
<path d="M1.05664 5.00009C0.504356 5.00009 0.0566406 5.4478 0.0566406 6.00009C0.0566406 6.55237 0.504356 7.00009 1.05664 7.00009V5.00009ZM19 6.00009L19.705 6.70929C19.8934 6.52202 19.9995 6.2675 20 6.00187C20.0005 5.73625 19.8952 5.48135 19.7075 5.29341L19 6.00009ZM14.2949 9.26735C13.9032 9.65671 13.9013 10.2899 14.2907 10.6816C14.68 11.0732 15.3132 11.0751 15.7049 10.6857L14.2949 9.26735ZM15.7074 1.28844C15.3171 0.897678 14.684 0.897294 14.2932 1.28758C13.9024 1.67787 13.9021 2.31103 14.2923 2.7018L15.7074 1.28844ZM1.05664 7.00009H19V5.00009H1.05664V7.00009ZM18.295 5.29089L14.2949 9.26735L15.7049 10.6857L19.705 6.70929L18.295 5.29089ZM19.7075 5.29341L15.7074 1.28844L14.2923 2.7018L18.2925 6.70677L19.7075 5.29341Z" fill="#2EA0AE"/>
</svg>
