<svg width="171" height="35" viewBox="0 0 171 35" fill="none" xmlns="http://www.w3.org/2000/svg">
<path d="M113.461 7.77878H110.385V0.0103542H113.461C114.065 0.00366315 114.667 0.0966991 115.241 0.285725C115.761 0.459503 116.24 0.73467 116.653 1.09528C117.043 1.44153 117.352 1.87004 117.557 2.34999C117.763 2.83864 117.867 3.36432 117.862 3.89457C117.866 4.42676 117.763 4.95434 117.557 5.44536C117.353 5.92602 117.043 6.35474 116.651 6.70006C116.238 7.05699 115.759 7.32924 115.241 7.50134C114.667 7.69222 114.066 7.78599 113.461 7.77878ZM111.966 6.32945H113.461C113.875 6.3356 114.288 6.27406 114.682 6.14725C115.001 6.04284 115.295 5.87681 115.549 5.65861C115.781 5.45321 115.963 5.1985 116.084 4.91324C116.219 4.58522 116.286 4.23289 116.28 3.878C116.285 3.52789 116.218 3.1805 116.084 2.85726C115.963 2.56936 115.779 2.31243 115.545 2.10568C115.293 1.88613 115 1.71929 114.682 1.61497C114.288 1.48816 113.875 1.42662 113.461 1.43277H111.966V6.32945Z" fill="white"/>
<path d="M123.293 0.0103569L126.367 7.77878H124.686L123.983 6.00439H120.524L119.822 7.77878H118.135L121.209 0.0103569H123.293ZM123.44 4.63373L122.254 1.49489L121.066 4.63373H123.44Z" fill="white"/>
<path d="M131.946 1.44933H129.646V7.77878H128.071V1.44933H125.765V0H131.946V1.44933Z" fill="white"/>
<path d="M134.581 1.44934V3.1347H138.073V4.57368H134.581V6.3398H138.377V7.78913H132.995V0.0103569H138.377V1.45969L134.581 1.44934Z" fill="white"/>
<path d="M146.544 0.010356V7.77878H145.004L142.712 4.56333C142.138 3.77761 141.628 2.9467 141.188 2.07876C141.348 2.93533 141.417 3.80621 141.395 4.67721V7.78292H139.812V0.010356H141.352L143.644 3.22373C144.218 4.00946 144.727 4.84036 145.167 5.7083C145.008 4.85244 144.938 3.98224 144.96 3.11193V0.00621414L146.544 0.010356Z" fill="white"/>
<path d="M117.373 21.1685H115.336L111.979 17.4065V21.1685H110.397V13.4001H113.662C114.066 13.3963 114.468 13.4478 114.858 13.5533C115.211 13.6501 115.545 13.8078 115.843 14.0192C116.129 14.2227 116.363 14.49 116.527 14.7998C116.685 15.1047 116.766 15.4438 116.762 15.7874C116.762 15.8683 116.757 15.9492 116.748 16.0296C116.749 16.04 116.749 16.0504 116.748 16.0607C116.73 16.217 116.693 16.3706 116.638 16.5183C116.634 16.5339 116.628 16.5491 116.622 16.5638C116.609 16.5969 116.593 16.628 116.578 16.6611C116.011 17.8454 114.343 17.9345 114.343 17.9345L117.373 21.1685ZM111.979 16.7336H113.662C113.906 16.7377 114.15 16.7078 114.386 16.6446C114.553 16.604 114.71 16.5339 114.852 16.4375C114.953 16.3646 115.037 16.2698 115.096 16.1601C115.153 16.0464 115.181 15.9207 115.179 15.7936C115.182 15.6645 115.154 15.5365 115.096 15.4209C115.038 15.3128 114.956 15.2194 114.856 15.1476C114.713 15.0512 114.554 14.981 114.386 14.9406C114.15 14.8773 113.906 14.8474 113.662 14.8515H111.979V16.7336Z" fill="white"/>
<path d="M120.035 14.8391V16.5265H123.527V17.9655H120.035V19.7296H123.832V21.1789H118.45V13.4001H123.832V14.8391H120.035Z" fill="white"/>
<path d="M130.859 14.8391H128.559V21.1685H126.976V14.8391H124.676V13.4001H130.859V14.8391Z" fill="white"/>
<path d="M137.661 14.8391H135.361V21.1685H133.778V14.8391H131.48V13.4001H137.661V14.8391Z" fill="white"/>
<path d="M141.776 21.2927C141.33 21.2961 140.887 21.2218 140.466 21.0733C140.066 20.9327 139.699 20.7106 139.39 20.4211C139.09 20.1376 138.855 19.7921 138.702 19.4086C138.543 19.009 138.464 18.582 138.469 18.1518V13.3898H140.052V18.1518C140.048 18.4099 140.093 18.6664 140.185 18.9076C140.26 19.1002 140.376 19.2742 140.526 19.4172C140.675 19.5602 140.854 19.669 141.05 19.7358C141.284 19.8156 141.529 19.8548 141.776 19.8517C142.026 19.8552 142.275 19.816 142.511 19.7358C142.706 19.6684 142.884 19.5595 143.032 19.4164C143.18 19.2734 143.296 19.0997 143.37 18.9076C143.462 18.6664 143.507 18.4099 143.503 18.1518V13.3898H145.084V18.1518C145.09 18.5819 145.011 19.0089 144.852 19.4086C144.7 19.7893 144.467 20.1331 144.171 20.4169C143.863 20.7089 143.497 20.9325 143.097 21.0733C142.673 21.2223 142.226 21.2966 141.776 21.2927Z" fill="white"/>
<path d="M153.356 13.4001V21.1685H151.816L149.524 17.9531C148.95 17.1676 148.441 16.3366 148.001 15.4685C148.16 16.3251 148.23 17.196 148.208 18.067V21.1727H146.624V13.4001H148.164L150.456 16.6156C151.03 17.4013 151.539 18.2322 151.979 19.1001C151.82 18.2436 151.751 17.3727 151.772 16.5017V13.396L153.356 13.4001Z" fill="white"/>
<path d="M167.105 21.2928H166.917C165.401 21.2265 164.182 20.3611 163.812 19.0898L165.339 18.7192C165.573 19.5142 166.347 19.8269 166.995 19.8559C167.431 19.8961 167.867 19.7745 168.219 19.5142C168.295 19.4499 168.355 19.3688 168.395 19.2772C168.435 19.1856 168.453 19.086 168.448 18.9863C168.432 18.4148 167.916 18.1457 166.904 17.8164C166.774 17.775 166.656 17.7378 166.556 17.7005L166.391 17.6425C165.695 17.4023 164.064 16.8392 164.186 15.3215C164.296 13.9819 165.635 13.28 166.906 13.28C168.274 13.28 169.287 13.866 169.755 14.9364L168.285 15.4706C168.144 15.1497 167.848 14.7252 166.906 14.7252C166.861 14.7252 165.822 14.7252 165.766 15.4333C165.735 15.8081 166.18 16.0358 166.952 16.3029L167.148 16.3713C167.231 16.4023 167.326 16.4334 167.434 16.4686C168.262 16.7357 169.982 17.2968 170.03 18.9531C170.04 19.2547 169.982 19.5547 169.86 19.8307C169.738 20.1067 169.556 20.3517 169.326 20.5474C168.7 21.0557 167.911 21.3204 167.105 21.2928Z" fill="white"/>
<path d="M115.75 34.5666L111.968 30.7693V34.5666H110.385V26.792H111.968V30.1606L115.324 26.792H117.46L113.666 30.4629L117.886 34.5666H115.75Z" fill="white"/>
<path d="M124.198 34.5666H118.816V26.792H120.412V33.1173H124.208L124.198 34.5666Z" fill="white"/>
<path d="M125.254 34.5666V26.792H126.829V34.5666H125.254Z" fill="white"/>
<path d="M135.214 26.792V34.5666H133.674L131.383 31.3449C130.809 30.5592 130.299 29.7283 129.859 28.8604C130.019 29.7169 130.088 30.5878 130.066 31.4588V34.5645H128.485V26.792H130.023L132.314 30.0115C132.889 30.7969 133.398 31.6278 133.838 32.4961C133.679 31.6395 133.609 30.7687 133.631 29.8977V26.792H135.214Z" fill="white"/>
<path d="M136.86 34.5666V26.792H138.444V34.5666H136.86Z" fill="white"/>
<path d="M145.442 34.5666L141.66 30.7693V34.5666H140.077V26.792H141.658V30.1606L145.016 26.792H147.15L143.356 30.4629L147.579 34.5666H145.442Z" fill="white"/>
<path d="M101.939 0.010358L92.1564 0.00828552L79.9765 12.193V0.00828552H71.5785V34.5604H79.9765V22.3777L92.1564 34.5604H101.939L84.6671 17.2843L101.939 0.010358Z" fill="white"/>
<path d="M55.1551 22.0133C57.2963 21.4283 59.2156 20.2204 60.6694 18.5428C62.1233 16.8653 63.0463 14.7936 63.3213 12.5906C63.3778 12.131 63.4062 11.6684 63.4062 11.2054C63.4062 11.0674 63.4062 10.9294 63.4062 10.7913C63.298 7.89562 62.0719 5.15459 59.9855 3.14417C57.8991 1.13376 55.1149 0.0104784 52.2178 0.0103569H37.3138V34.5666H45.7118V22.4046H45.7366L57.8979 34.5666L67.6973 34.5811L55.1551 22.0133ZM45.7097 15.3878V7.02927H52.2157C52.912 7.02792 53.5975 7.20164 54.2092 7.53446C54.3271 7.5977 54.4418 7.6668 54.5528 7.74151C54.6087 7.7771 54.6626 7.81581 54.7142 7.85746C54.795 7.91957 54.8736 7.98168 54.9481 8.04794C55.0227 8.11419 55.0993 8.18252 55.1717 8.25499C55.9536 9.03937 56.3927 10.1019 56.3927 11.2096C56.3927 12.3172 55.9536 13.3797 55.1717 14.1641C54.7841 14.5533 54.3234 14.8619 53.8161 15.0723C53.3088 15.2826 52.7649 15.3906 52.2157 15.3898L45.7097 15.3878Z" fill="white"/>
<path d="M20.4061 25.2039C18.8855 26.1851 17.1131 26.7044 15.3035 26.6988H8.39799V0.0103569H0V34.5666H15.9514C19.6847 34.5714 23.3179 33.3598 26.3014 31.1151L20.4061 25.2039Z" fill="white"/>
<path d="M29.2698 6.28389L23.2834 12.2738C24.2253 13.7748 24.725 15.5111 24.725 17.2833C24.725 19.0555 24.2253 20.7918 23.2834 22.2928L29.2719 28.2848C31.8274 25.1887 33.2253 21.2992 33.2253 17.2843C33.2253 13.2695 31.8274 9.37991 29.2719 6.28389H29.2698Z" fill="white"/>
<path d="M15.9514 0.0103606H12.4862V7.85746H15.3035C17.1137 7.85369 18.8862 8.37512 20.4061 9.35856L26.3097 3.45356C23.3226 1.21081 19.6865 0.00212512 15.9514 0.0103606Z" fill="white"/>
<path d="M101.904 8.04587L92.6677 17.2843L101.904 26.5228V8.04587Z" fill="white"/>
<path d="M163.174 17.0586H160.429V17.2905H163.174V17.0586Z" fill="white"/>
<path d="M163.042 17.0586H158.79V18.3009H161.274C161.049 18.7692 160.697 19.1645 160.257 19.4411C159.818 19.7177 159.309 19.8645 158.79 19.8645C158.27 19.8645 157.762 19.7177 157.322 19.4411C156.883 19.1645 156.53 18.7692 156.306 18.3009C156.161 17.9867 156.086 17.6448 156.086 17.2988C156.086 17.2181 156.086 17.1394 156.099 17.0649C156.221 15.7605 157.384 14.7335 158.79 14.7335C159.2 14.7297 159.606 14.8193 159.977 14.9954C160.348 15.1715 160.674 15.4296 160.93 15.7501H162.712C162.362 15.0058 161.805 14.3782 161.108 13.9426C160.41 13.5071 159.602 13.2821 158.779 13.2945C156.517 13.2945 154.662 14.9675 154.54 17.0649C154.53 17.1424 154.525 17.2206 154.528 17.2988C154.526 17.6379 154.573 17.9755 154.668 18.3009C155.136 20.0256 156.803 21.3031 158.779 21.3031C160.756 21.3031 162.427 20.0256 162.903 18.3009C162.966 18.0559 163.006 17.8058 163.025 17.5535C163.034 17.4689 163.037 17.3838 163.035 17.2988V17.0649L163.042 17.0586Z" fill="white"/>
</svg>
