<svg width="207" height="42" viewBox="0 0 207 42" fill="none" xmlns="http://www.w3.org/2000/svg">
<path d="M138.13 9.44762H134.385V0.0125756H138.13C138.866 0.00444903 139.598 0.117445 140.297 0.347023C140.93 0.558083 141.514 0.892284 142.016 1.33026C142.492 1.75079 142.868 2.27123 143.117 2.85415C143.368 3.44764 143.494 4.08609 143.488 4.7301C143.493 5.37647 143.367 6.01723 143.117 6.61358C142.868 7.19737 142.491 7.71806 142.014 8.13748C141.511 8.57098 140.928 8.90164 140.297 9.11065C139.599 9.34249 138.866 9.45637 138.13 9.44762ZM136.311 7.68735H138.13C138.635 7.69482 139.137 7.62008 139.617 7.46606C140.005 7.33925 140.363 7.1376 140.673 6.8726C140.955 6.62312 141.177 6.31377 141.323 5.96731C141.488 5.56892 141.57 5.14101 141.562 4.70998C141.568 4.28476 141.487 3.86284 141.323 3.47025C141.176 3.12058 140.952 2.80853 140.668 2.55742C140.361 2.29078 140.004 2.08814 139.617 1.96145C139.137 1.80743 138.635 1.73268 138.13 1.74015H136.311V7.68735Z" fill="#1B1A34"/>
<path d="M150.1 0.0125788L153.843 9.44762H151.796L150.94 7.29255H146.729L145.874 9.44762H143.82L147.563 0.0125788H150.1ZM150.279 5.62783L148.835 1.8156L147.389 5.62783H150.279Z" fill="#1B1A34"/>
<path d="M160.634 1.76027H157.835V9.44762H155.917V1.76027H153.109V0H160.634V1.76027Z" fill="#1B1A34"/>
<path d="M163.842 1.76027V3.80721H168.094V5.5549H163.842V7.69991H168.464V9.46018H161.912V0.0125788H168.464V1.77285L163.842 1.76027Z" fill="#1B1A34"/>
<path d="M178.406 0.0125777V9.44761H176.531L173.741 5.54233C173.042 4.58804 172.422 3.57888 171.886 2.52473C172.08 3.56507 172.165 4.62278 172.138 5.68064V9.45264H170.211V0.0125777H172.086L174.875 3.91534C175.574 4.86963 176.194 5.87879 176.73 6.93294C176.536 5.89347 176.452 4.83658 176.478 3.77955V0.0075473L178.406 0.0125777Z" fill="#1B1A34"/>
<path d="M142.893 25.71H140.413L136.326 21.1408V25.71H134.4V16.2749H138.375C138.866 16.2703 139.356 16.3329 139.831 16.461C140.261 16.5786 140.667 16.77 141.031 17.0268C141.378 17.274 141.663 17.5986 141.862 17.9749C142.055 18.3452 142.154 18.7571 142.15 19.1744C142.149 19.2727 142.143 19.3709 142.132 19.4686C142.133 19.4811 142.133 19.4937 142.132 19.5063C142.11 19.6961 142.065 19.8827 141.998 20.062C141.993 20.081 141.987 20.0995 141.978 20.1174C141.963 20.1576 141.943 20.1953 141.925 20.2355C141.235 21.6739 139.204 21.7821 139.204 21.7821L142.893 25.71ZM136.326 20.3236H138.375C138.672 20.3286 138.969 20.2922 139.257 20.2154C139.459 20.1662 139.651 20.081 139.824 19.964C139.947 19.8754 140.049 19.7602 140.121 19.627C140.19 19.489 140.225 19.3362 140.222 19.1819C140.226 19.0251 140.191 18.8697 140.121 18.7293C140.05 18.598 139.95 18.4845 139.829 18.3973C139.654 18.2802 139.461 18.195 139.257 18.1459C138.969 18.0691 138.672 18.0327 138.375 18.0377H136.326V20.3236Z" fill="#1B1A34"/>
<path d="M146.134 18.0226V20.0721H150.385V21.8198H146.134V23.9623H150.756V25.7225H144.204V16.2749H150.756V18.0226H146.134Z" fill="#1B1A34"/>
<path d="M159.311 18.0226H156.512V25.71H154.584V18.0226H151.784V16.2749H159.311V18.0226Z" fill="#1B1A34"/>
<path d="M167.592 18.0226H164.792V25.71H162.865V18.0226H160.067V16.2749H167.592V18.0226Z" fill="#1B1A34"/>
<path d="M172.602 25.8608C172.059 25.8649 171.519 25.7747 171.007 25.5943C170.52 25.4235 170.074 25.1538 169.697 24.8022C169.331 24.4579 169.046 24.0382 168.86 23.5725C168.666 23.0872 168.569 22.5686 168.575 22.0461V16.2624H170.503V22.0461C170.498 22.3595 170.552 22.671 170.664 22.9639C170.756 23.1979 170.898 23.4092 171.08 23.5829C171.262 23.7566 171.479 23.8887 171.718 23.9698C172.002 24.0667 172.301 24.1144 172.602 24.1106C172.906 24.1149 173.209 24.0673 173.497 23.9698C173.734 23.888 173.95 23.7557 174.131 23.582C174.312 23.4083 174.452 23.1973 174.543 22.9639C174.655 22.6711 174.709 22.3595 174.704 22.0461V16.2624H176.629V22.0461C176.636 22.5684 176.54 23.0871 176.347 23.5725C176.161 24.0349 175.878 24.4523 175.518 24.7971C175.143 25.1517 174.697 25.4233 174.21 25.5943C173.694 25.7753 173.15 25.8655 172.602 25.8608Z" fill="#1B1A34"/>
<path d="M186.699 16.2749V25.71H184.825L182.035 21.8047C181.336 20.8506 180.715 19.8414 180.18 18.7871C180.374 19.8274 180.459 20.8851 180.432 21.943V25.715H178.504V16.2749H180.379L183.169 20.1802C183.868 21.1345 184.488 22.1437 185.024 23.1978C184.83 22.1575 184.745 21.0998 184.772 20.0419V16.2699L186.699 16.2749Z" fill="#1B1A34"/>
<path d="M203.438 25.8609H203.208C201.364 25.7804 199.879 24.7293 199.428 23.1853L201.288 22.7351C201.573 23.7008 202.515 24.0805 203.304 24.1157C203.835 24.1646 204.365 24.0169 204.794 23.7008C204.887 23.6226 204.96 23.5241 205.009 23.4128C205.057 23.3016 205.079 23.1807 205.073 23.0595C205.053 22.3655 204.426 22.0386 203.193 21.6387C203.035 21.5884 202.891 21.5432 202.77 21.4979L202.568 21.4275C201.722 21.1358 199.736 20.4518 199.884 18.6086C200.018 16.9816 201.649 16.1291 203.196 16.1291C204.862 16.1291 206.094 16.8407 206.663 18.1408L204.874 18.7896C204.703 18.3998 204.342 17.8843 203.196 17.8843C203.14 17.8843 201.875 17.8843 201.807 18.7443C201.769 19.1995 202.311 19.4761 203.251 19.8005L203.491 19.8835C203.592 19.9212 203.707 19.9589 203.838 20.0017C204.846 20.3261 206.941 21.0075 206.999 23.0193C207.011 23.3856 206.94 23.7499 206.792 24.0851C206.644 24.4204 206.421 24.7179 206.142 24.9556C205.379 25.5729 204.419 25.8945 203.438 25.8609Z" fill="#1B1A34"/>
<path d="M140.917 41.9824L136.313 37.3705V41.9824H134.385V32.5398H136.313V36.6312L140.398 32.5398H142.999L138.38 36.9983L143.518 41.9824H140.917Z" fill="#1B1A34"/>
<path d="M151.202 41.9824H144.65V32.5398H146.593V40.2221H151.214L151.202 41.9824Z" fill="#1B1A34"/>
<path d="M152.487 41.9824V32.5398H154.405V41.9824H152.487Z" fill="#1B1A34"/>
<path d="M164.614 32.5398V41.9824H162.739L159.949 38.0696C159.25 37.1153 158.63 36.1061 158.094 35.052C158.288 36.0923 158.373 37.15 158.346 38.2079V41.9799H156.421V32.5398H158.293L161.083 36.4501C161.782 37.404 162.403 38.4132 162.938 39.4677C162.744 38.4274 162.659 37.3697 162.686 36.3118V32.5398H164.614Z" fill="#1B1A34"/>
<path d="M166.617 41.9824V32.5398H168.545V41.9824H166.617Z" fill="#1B1A34"/>
<path d="M177.065 41.9824L172.461 37.3705V41.9824H170.533V32.5398H172.459V36.6312L176.546 32.5398H179.144L174.525 36.9983L179.666 41.9824H177.065Z" fill="#1B1A34"/>
<path d="M124.103 0.0125802L112.194 0.0100631L97.3654 14.8089V0.0100631H87.1415V41.9748H97.3654V27.1785L112.194 41.9748H124.103L103.076 20.9925L124.103 0.0125802Z" fill="#1B1A34"/>
<path d="M67.1473 26.736C69.754 26.0255 72.0905 24.5584 73.8605 22.521C75.6305 20.4835 76.7541 17.9674 77.089 15.2917C77.1578 14.7336 77.1923 14.1717 77.1923 13.6094C77.1923 13.4417 77.1923 13.2741 77.1923 13.1065C77.0606 9.58953 75.5679 6.26044 73.0279 3.81872C70.4879 1.37699 67.0982 0.0127264 63.5713 0.0125788H45.4268V41.9824H55.6507V27.2112H55.681L70.4864 41.9824L82.4164 42L67.1473 26.736ZM55.6482 18.689V8.5373H63.5688C64.4165 8.53566 65.251 8.74666 65.9956 9.15088C66.1392 9.22769 66.2788 9.31162 66.4139 9.40235C66.4821 9.44558 66.5477 9.49259 66.6105 9.54317C66.7088 9.61861 66.8046 9.69405 66.8953 9.77452C66.986 9.85499 67.0792 9.93797 67.1674 10.026C68.1194 10.9786 68.654 12.2691 68.654 13.6144C68.654 14.9597 68.1194 16.2502 67.1674 17.2029C66.6956 17.6755 66.1347 18.0503 65.5171 18.3058C64.8995 18.5613 64.2374 18.6924 63.5688 18.6915L55.6482 18.689Z" fill="#1B1A34"/>
<path d="M24.8429 30.6111C22.9917 31.8028 20.8339 32.4335 18.6309 32.4267H10.2239V0.0125788H0V41.9824H19.4197C23.9647 41.9882 28.3879 40.5167 32.02 37.7904L24.8429 30.6111Z" fill="#1B1A34"/>
<path d="M35.6338 7.63202L28.3458 14.907C29.4925 16.73 30.1008 18.8388 30.1008 20.9912C30.1008 23.1436 29.4925 25.2524 28.3458 27.0754L35.6363 34.3529C38.7475 30.5927 40.4493 25.8687 40.4493 20.9925C40.4493 16.1162 38.7475 11.3922 35.6363 7.63202H35.6338Z" fill="#2B317E"/>
<path d="M19.4197 0.0125833H15.2011V9.54318H18.6309C20.8347 9.5386 22.9925 10.1719 24.8429 11.3663L32.0301 4.19448C28.3935 1.47057 23.9668 0.00258104 19.4197 0.0125833Z" fill="#2EA0AE"/>
<path d="M124.061 9.77201L112.816 20.9925L124.061 32.2129V9.77201Z" fill="#2EA0AE"/>
<path d="M198.652 20.7184H195.311V21H198.652V20.7184Z" fill="white"/>
<path d="M198.491 20.7184H193.315V22.2272H196.339C196.065 22.7959 195.636 23.2759 195.101 23.6119C194.566 23.9479 193.947 24.1262 193.315 24.1262C192.682 24.1262 192.063 23.9479 191.528 23.6119C190.993 23.2759 190.564 22.7959 190.291 22.2272C190.114 21.8456 190.023 21.4303 190.023 21.0101C190.023 20.912 190.023 20.8164 190.039 20.7259C190.187 19.1417 191.604 17.8944 193.315 17.8944C193.814 17.8898 194.309 17.9986 194.76 18.2125C195.211 18.4264 195.608 18.7398 195.92 19.1291H198.09C197.664 18.225 196.986 17.4628 196.137 16.9338C195.287 16.4049 194.303 16.1315 193.302 16.1467C190.548 16.1467 188.29 18.1785 188.141 20.7259C188.128 20.8201 188.123 20.9151 188.126 21.0101C188.123 21.4219 188.181 21.8319 188.297 22.2272C188.867 24.3219 190.895 25.8734 193.302 25.8734C195.709 25.8734 197.742 24.3219 198.322 22.2272C198.398 21.9296 198.448 21.6258 198.471 21.3194C198.481 21.2166 198.485 21.1133 198.483 21.0101V20.7259L198.491 20.7184Z" fill="#1B1A34"/>
</svg>
