<svg width="52" height="52" viewBox="0 0 52 52" fill="none" xmlns="http://www.w3.org/2000/svg">
<path d="M37.3009 34.4557C36.5204 33.6742 35.254 33.6734 34.4725 34.454C33.691 35.2346 33.6902 36.5009 34.4708 37.2824L37.3009 34.4557ZM48.5849 51.4134C49.3655 52.1949 50.6319 52.1956 51.4134 51.4151C52.1949 50.6345 52.1956 49.3681 51.4151 48.5866L48.5849 51.4134ZM13.2913 19.7833C12.1867 19.7833 11.2913 20.6788 11.2913 21.7833C11.2913 22.8879 12.1867 23.7833 13.2913 23.7833V19.7833ZM30.2282 23.7833C31.3328 23.7833 32.2282 22.8879 32.2282 21.7833C32.2282 20.6788 31.3328 19.7833 30.2282 19.7833V23.7833ZM19.7598 30.2619C19.7598 31.3665 20.6552 32.2619 21.7598 32.2619C22.8643 32.2619 23.7598 31.3665 23.7598 30.2619H19.7598ZM23.7598 13.3048C23.7598 12.2002 22.8643 11.3048 21.7598 11.3048C20.6552 11.3048 19.7598 12.2002 19.7598 13.3048H23.7598ZM34.4708 37.2824L48.5849 51.4134L51.4151 48.5866L37.3009 34.4557L34.4708 37.2824ZM39.2129 21.6299C39.2129 31.3688 31.328 39.2598 21.6065 39.2598V43.2598C33.5416 43.2598 43.2129 33.5735 43.2129 21.6299H39.2129ZM21.6065 39.2598C11.8849 39.2598 4 31.3688 4 21.6299H0C0 33.5735 9.6713 43.2598 21.6065 43.2598V39.2598ZM4 21.6299C4 11.8909 11.8849 4 21.6065 4V0C9.6713 0 0 9.68628 0 21.6299H4ZM21.6065 4C31.328 4 39.2129 11.8909 39.2129 21.6299H43.2129C43.2129 9.68628 33.5416 0 21.6065 0V4ZM13.2913 23.7833H30.2282V19.7833H13.2913V23.7833ZM23.7598 30.2619V13.3048H19.7598V30.2619H23.7598Z" fill="#50C0CE"/>
</svg>
