<svg width="24" height="24" viewBox="0 0 24 24" fill="none" xmlns="http://www.w3.org/2000/svg">
<path d="M10 13L9.34921 13.7593C9.53045 13.9146 9.76129 14 10 14V13ZM14 13V14C14.2387 14 14.4695 13.9146 14.6508 13.7593L14 13ZM20 7V17H22V7H20ZM4 17V7H2V17H4ZM2 17C2 18.6569 3.34314 20 5 20V18C4.44772 18 4 17.5523 4 17H2ZM20 17C20 17.5523 19.5523 18 19 18V20C20.6569 20 22 18.6569 22 17H20ZM22 7C22 5.34315 20.6569 4 19 4V6C19.5523 6 20 6.44772 20 7H22ZM4 7C4 6.44772 4.44772 6 5 6V4C3.34315 4 2 5.34315 2 7H4ZM5 6H19V4H5V6ZM2.34921 7.75926L9.34921 13.7593L10.6508 12.2407L3.65079 6.24074L2.34921 7.75926ZM14.6508 13.7593L21.6508 7.75926L20.3492 6.24074L13.3492 12.2407L14.6508 13.7593ZM10 14H14V12H10V14ZM19 18H12V20H19V18ZM12 18H5V20H12V18Z" fill="white"/>
</svg>
