<svg width="24" height="24" viewBox="0 0 24 24" fill="none" xmlns="http://www.w3.org/2000/svg">
<path d="M13.6472 14.8119C11.9727 14.05 9.83119 12.0862 9.14846 10.2952C9.06654 10.0803 9.08726 9.84312 9.17932 9.63238L9.87083 8.04925C10.0063 7.74927 9.98727 7.40167 9.8198 7.11846L7.676 3.49297C7.3983 3.02334 6.79865 2.86168 6.32426 3.12854L3.52585 4.63559C3.20197 4.81002 2.99661 5.14836 3.01503 5.51575C3.39543 13.1034 10.9345 20.6194 18.4613 20.986C18.8152 21.0033 19.1432 20.8125 19.3229 20.507L20.8604 17.8933C21.1383 17.4209 20.9887 16.8119 20.524 16.5236L16.7891 14.2065C16.5088 14.0327 16.1614 14.0082 15.8598 14.1411L14.3865 14.7997C14.1508 14.9051 13.8822 14.9189 13.6472 14.8119Z" stroke="white" stroke-width="2" stroke-linecap="round"/>
</svg>
