<svg width="20" height="11" viewBox="0 0 20 11" fill="none" xmlns="http://www.w3.org/2000/svg">
<path d="M18.9434 5.00009C19.4956 5.00009 19.9434 5.4478 19.9434 6.00009C19.9434 6.55237 19.4956 7.00009 18.9434 7.00009V5.00009ZM1 6.00009L0.294994 6.70929C0.106611 6.52202 0.000476837 6.2675 1.90735e-06 6.00187C-0.000473022 5.73625 0.104753 5.48135 0.292465 5.29341L1 6.00009ZM5.70512 9.26735C6.0968 9.65671 6.09868 10.2899 5.70932 10.6816C5.31995 11.0732 4.68679 11.0751 4.29511 10.6857L5.70512 9.26735ZM4.29258 1.28844C4.68287 0.897678 5.31603 0.897294 5.7068 1.28758C6.09756 1.67787 6.09794 2.31103 5.70765 2.7018L4.29258 1.28844ZM18.9434 7.00009H1V5.00009H18.9434V7.00009ZM1.70501 5.29089L5.70512 9.26735L4.29511 10.6857L0.294994 6.70929L1.70501 5.29089ZM0.292465 5.29341L4.29258 1.28844L5.70765 2.7018L1.70753 6.70677L0.292465 5.29341Z" fill="#2EA0AE"/>
</svg>
