<svg width="20" height="19" viewBox="0 0 20 19" fill="none" xmlns="http://www.w3.org/2000/svg">
<path d="M2.00005 16.0051L2.9745 16.2298L2.00005 16.0051ZM18.0001 16.0051L17.0256 16.2298L18.0001 16.0051ZM2.9745 16.2298C3.5801 13.6027 6.0163 12.0051 10.0001 12.0051V10.0051C5.53932 10.0051 1.92777 11.867 1.02561 15.7805L2.9745 16.2298ZM10.0001 12.0051C13.9838 12.0051 16.42 13.6027 17.0256 16.2298L18.9745 15.7805C18.0723 11.867 14.4608 10.0051 10.0001 10.0051V12.0051ZM17.0256 16.2298C17.0525 16.3464 17.0002 16.2454 17.0981 16.0878C17.1897 15.9403 17.3005 15.9273 17.2254 15.9493C17.1503 15.9714 17.0111 15.9922 16.7761 16.0009C16.5423 16.0097 16.3008 16.0051 16.0001 16.0051V18.0051C16.2516 18.0051 16.5672 18.0101 16.8508 17.9995C17.1331 17.989 17.4714 17.9616 17.7892 17.8682C18.1071 17.7748 18.5262 17.579 18.797 17.1431C19.0741 16.6971 19.0717 16.202 18.9745 15.7805L17.0256 16.2298ZM1.02561 15.7805C0.928446 16.202 0.926031 16.6971 1.20309 17.1431C1.47386 17.579 1.89299 17.7748 2.21089 17.8682C2.52868 17.9616 2.86705 17.989 3.14935 17.9995C3.43288 18.0101 3.74851 18.0051 4.00005 18.0051V16.0051C3.69931 16.0051 3.45778 16.0097 3.224 16.0009C2.98897 15.9922 2.84986 15.9714 2.7747 15.9493C2.69966 15.9273 2.81038 15.9403 2.902 16.0878C2.99991 16.2454 2.9476 16.3464 2.9745 16.2298L1.02561 15.7805ZM12.0001 4.00513C12.0001 5.1097 11.1046 6.00513 10.0001 6.00513V8.00513C12.2092 8.00513 14.0001 6.21427 14.0001 4.00513H12.0001ZM10.0001 6.00513C8.89549 6.00513 8.00005 5.1097 8.00005 4.00513H6.00005C6.00005 6.21427 7.79092 8.00513 10.0001 8.00513V6.00513ZM8.00005 4.00513C8.00005 2.90056 8.89549 2.00513 10.0001 2.00513V0.00512695C7.79092 0.00512695 6.00005 1.79599 6.00005 4.00513H8.00005ZM10.0001 2.00513C11.1046 2.00513 12.0001 2.90056 12.0001 4.00513H14.0001C14.0001 1.79599 12.2092 0.00512695 10.0001 0.00512695V2.00513ZM4.00005 18.0051H16.0001V16.0051H4.00005V18.0051Z" fill="white"/>
</svg>
