<svg width="57" height="47" viewBox="0 0 57 47" fill="none" xmlns="http://www.w3.org/2000/svg">
<path d="M1 41V23.0783C1 22.9077 1.04365 22.74 1.12678 22.591L13.1765 1H24L12 23H19C21.7614 23 24 25.2386 24 28V41C24 43.7614 21.7614 46 19 46H6C3.23858 46 1 43.7614 1 41Z" fill="#CFD0DF"/>
<path d="M33 41V23.0783C33 22.9077 33.0436 22.74 33.1268 22.591L45.1765 1H56L44 23H51C53.7614 23 56 25.2386 56 28V41C56 43.7614 53.7614 46 51 46H38C35.2386 46 33 43.7614 33 41Z" fill="#CFD0DF"/>
<path d="M12 23L11.5611 22.7606C11.4766 22.9155 11.48 23.1035 11.5701 23.2552C11.6601 23.407 11.8235 23.5 12 23.5V23ZM24 1L24.4389 1.23943C24.5235 1.08451 24.52 0.896513 24.4299 0.744768C24.3399 0.593023 24.1765 0.5 24 0.5V1ZM13.1765 1V0.5C12.9952 0.5 12.8282 0.598074 12.7399 0.756334L13.1765 1ZM1.12678 22.591L1.56339 22.8347H1.56339L1.12678 22.591ZM44 23L43.5611 22.7606C43.4766 22.9155 43.48 23.1035 43.57 23.2552C43.6601 23.407 43.8235 23.5 44 23.5V23ZM56 1L56.4389 1.23943C56.5234 1.08451 56.52 0.896513 56.43 0.744768C56.3399 0.593023 56.1765 0.5 56 0.5V1ZM45.1765 1V0.5C44.9952 0.5 44.8282 0.598074 44.7399 0.756334L45.1765 1ZM33.1268 22.591L33.5634 22.8347L33.1268 22.591ZM0.5 23.0783V41H1.5V23.0783H0.5ZM6 46.5H19V45.5H6V46.5ZM24.5 41V28H23.5V41H24.5ZM19 22.5H12V23.5H19V22.5ZM12.4389 23.2394L24.4389 1.23943L23.5611 0.760574L11.5611 22.7606L12.4389 23.2394ZM24 0.5H13.1765V1.5H24V0.5ZM12.7399 0.756334L0.690176 22.3473L1.56339 22.8347L13.6131 1.24367L12.7399 0.756334ZM24.5 28C24.5 24.9624 22.0376 22.5 19 22.5V23.5C21.4853 23.5 23.5 25.5147 23.5 28H24.5ZM19 46.5C22.0376 46.5 24.5 44.0376 24.5 41H23.5C23.5 43.4853 21.4853 45.5 19 45.5V46.5ZM0.5 41C0.5 44.0376 2.96243 46.5 6 46.5V45.5C3.51472 45.5 1.5 43.4853 1.5 41H0.5ZM1.5 23.0783C1.5 22.993 1.52182 22.9092 1.56339 22.8347L0.690176 22.3473C0.565468 22.5708 0.5 22.8224 0.5 23.0783H1.5ZM32.5 23.0783V41H33.5V23.0783H32.5ZM38 46.5H51V45.5H38V46.5ZM56.5 41V28H55.5V41H56.5ZM51 22.5H44V23.5H51V22.5ZM44.4389 23.2394L56.4389 1.23943L55.5611 0.760574L43.5611 22.7606L44.4389 23.2394ZM56 0.5H45.1765V1.5H56V0.5ZM44.7399 0.756334L32.6902 22.3473L33.5634 22.8347L45.6131 1.24367L44.7399 0.756334ZM56.5 28C56.5 24.9624 54.0376 22.5 51 22.5V23.5C53.4853 23.5 55.5 25.5147 55.5 28H56.5ZM51 46.5C54.0376 46.5 56.5 44.0376 56.5 41H55.5C55.5 43.4853 53.4853 45.5 51 45.5V46.5ZM32.5 41C32.5 44.0376 34.9624 46.5 38 46.5V45.5C35.5147 45.5 33.5 43.4853 33.5 41H32.5ZM33.5 23.0783C33.5 22.993 33.5218 22.9092 33.5634 22.8347L32.6902 22.3473C32.5655 22.5708 32.5 22.8224 32.5 23.0783H33.5Z" fill="#CFD0DF"/>
</svg>
