<svg width="40" height="40" viewBox="0 0 40 40" fill="none" xmlns="http://www.w3.org/2000/svg">
<path d="M9 30V10C9 8.89543 9.89543 8 11 8H31C32.1046 8 33 8.89543 33 10V30C33 31.1046 32.1046 32 31 32H11C9.89543 32 9 31.1046 9 30Z" fill="#2EA0AE" stroke="#2EA0AE" stroke-width="2"/>
<path d="M18.2929 24.2929C17.9024 24.6834 17.9024 25.3166 18.2929 25.7071C18.6834 26.0976 19.3166 26.0976 19.7071 25.7071L18.2929 24.2929ZM24 20L24.7071 20.7071C25.0976 20.3166 25.0976 19.6834 24.7071 19.2929L24 20ZM19.7071 14.2929C19.3166 13.9024 18.6834 13.9024 18.2929 14.2929C17.9024 14.6834 17.9024 15.3166 18.2929 15.7071L19.7071 14.2929ZM19.7071 25.7071L24.7071 20.7071L23.2929 19.2929L18.2929 24.2929L19.7071 25.7071ZM24.7071 19.2929L19.7071 14.2929L18.2929 15.7071L23.2929 20.7071L24.7071 19.2929Z" fill="white"/>
</svg>
