<svg width="20" height="21" viewBox="0 0 20 21" fill="none" xmlns="http://www.w3.org/2000/svg">
<path d="M11.639 12.8271C9.9645 12.0652 7.8228 10.1013 7.14003 8.31022C7.05811 8.09532 7.07884 7.8581 7.17089 7.64735L7.86245 6.06414C7.99796 5.76414 7.9789 5.41653 7.81142 5.1333L5.66749 1.50764C5.38977 1.03799 4.79009 0.876322 4.31567 1.1432L1.51706 2.65033C1.19318 2.82476 0.98782 3.1631 1.00624 3.5305C1.38665 11.1185 8.92616 18.6349 16.4535 19.0015C16.8074 19.0188 17.1354 18.828 17.3151 18.5225L18.8527 15.9086C19.1306 15.4362 18.981 14.8272 18.5163 14.5389L14.7811 12.2217C14.5008 12.0478 14.1534 12.0234 13.8517 12.1562L12.3784 12.8149C12.1427 12.9203 11.874 12.9341 11.639 12.8271Z" stroke="#2B317E" stroke-width="2" stroke-linecap="round"/>
</svg>
