<svg width="14" height="10" viewBox="0 0 14 10" fill="none" xmlns="http://www.w3.org/2000/svg">
<path d="M1.70714 4.29279C1.31663 3.90225 0.683469 3.90222 0.292926 4.29272C-0.0976162 4.68323 -0.097646 5.31639 0.29286 5.70694L1.70714 4.29279ZM4.99976 9L4.29262 9.70707C4.48015 9.89462 4.73451 9.99999 4.99973 10C5.26495 10 5.51931 9.89466 5.70686 9.70712L4.99976 9ZM13.7071 1.70712C14.0976 1.3166 14.0976 0.683434 13.7071 0.292904C13.3166 -0.0976263 12.6834 -0.0976357 12.2929 0.292883L13.7071 1.70712ZM0.29286 5.70694L4.29262 9.70707L5.7069 8.29293L1.70714 4.29279L0.29286 5.70694ZM5.70686 9.70712L13.7071 1.70712L12.2929 0.292883L4.29267 8.29288L5.70686 9.70712Z" fill="#1B1A34"/>
<path d="M1.70714 4.29279C1.31663 3.90225 0.683469 3.90222 0.292926 4.29272C-0.0976162 4.68323 -0.097646 5.31639 0.29286 5.70694L1.70714 4.29279ZM4.99976 9L4.29262 9.70707C4.48015 9.89462 4.73451 9.99999 4.99973 10C5.26495 10 5.51931 9.89466 5.70686 9.70712L4.99976 9ZM13.7071 1.70712C14.0976 1.3166 14.0976 0.683434 13.7071 0.292904C13.3166 -0.0976263 12.6834 -0.0976357 12.2929 0.292883L13.7071 1.70712ZM0.29286 5.70694L4.29262 9.70707L5.7069 8.29293L1.70714 4.29279L0.29286 5.70694ZM5.70686 9.70712L13.7071 1.70712L12.2929 0.292883L4.29267 8.29288L5.70686 9.70712Z" fill="black" fill-opacity="0.2"/>
</svg>
