<svg width="24" height="25" viewBox="0 0 24 25" fill="none" xmlns="http://www.w3.org/2000/svg">
<path d="M8.70763 11.2913C8.31712 10.9008 7.68396 10.9008 7.29341 11.2913C6.90287 11.6818 6.90284 12.3149 7.29335 12.7055L8.70763 11.2913ZM12.0002 15.9985L11.2931 16.7056C11.4806 16.8932 11.735 16.9985 12.0002 16.9985C12.2654 16.9985 12.5198 16.8932 12.7073 16.7057L12.0002 15.9985ZM21.7076 7.70565C22.0981 7.31513 22.0981 6.68197 21.7076 6.29144C21.3171 5.90091 20.6839 5.9009 20.2934 6.29142L21.7076 7.70565ZM7.29335 12.7055L11.2931 16.7056L12.7074 15.2915L8.70763 11.2913L7.29335 12.7055ZM12.7073 16.7057L21.7076 7.70565L20.2934 6.29142L11.2932 15.2914L12.7073 16.7057Z" fill="#A1A3C0"/>
<path d="M21.9907 12.5594C21.9665 12.0076 21.4995 11.58 20.9478 11.6043C20.396 11.6285 19.9684 12.0955 19.9927 12.6472L21.9907 12.5594ZM16.3937 6.31291C16.8553 6.61621 17.4753 6.48792 17.7786 6.02637C18.0819 5.56482 17.9536 4.94478 17.4921 4.64149L16.3937 6.31291ZM19.9927 12.6472C20.0715 14.4414 19.5444 16.21 18.4961 17.6682L20.1201 18.8356C21.4304 17.0128 22.0893 14.8021 21.9907 12.5594L19.9927 12.6472ZM18.4961 17.6682C17.4479 19.1264 15.9394 20.1895 14.2136 20.6864L14.7669 22.6083C16.9242 21.9873 18.8097 20.6584 20.1201 18.8356L18.4961 17.6682ZM14.2136 20.6864C12.4878 21.1832 10.645 21.0849 8.9818 20.4073L8.22716 22.2594C10.3061 23.1065 12.6096 23.2294 14.7669 22.6083L14.2136 20.6864ZM8.9818 20.4073C7.31864 19.7296 5.93185 18.5121 5.04468 16.9506L3.30575 17.9386C4.41472 19.8904 6.1482 21.4124 8.22716 22.2594L8.9818 20.4073ZM5.04468 16.9506C4.1575 15.3891 3.82153 13.5745 4.09085 11.7989L2.11346 11.499C1.77681 13.7185 2.19677 15.9867 3.30575 17.9386L5.04468 16.9506ZM4.09085 11.7989C4.36017 10.0233 5.21911 8.38996 6.52941 7.16178L5.16167 5.70258C3.52379 7.2378 2.45011 9.27948 2.11346 11.499L4.09085 11.7989ZM6.52941 7.16178C7.83972 5.93361 9.52517 5.18204 11.3145 5.02807L11.143 3.03543C8.90637 3.2279 6.79956 4.16736 5.16167 5.70258L6.52941 7.16178ZM11.3145 5.02807C13.1038 4.87409 14.8929 5.32665 16.3937 6.31291L17.4921 4.64149C15.616 3.40866 13.3796 2.84296 11.143 3.03543L11.3145 5.02807Z" fill="#A1A3C0"/>
</svg>
